<?xml version="1.0" encoding="UTF-8"?>
<svg id="Layer_2" data-name="Layer 2" xmlns="http://www.w3.org/2000/svg" xmlns:xlink="http://www.w3.org/1999/xlink" viewBox="0 0 133.92 125.65">
  <defs>
    <style>
      .cls-1 {
        fill: #ffcf35;
      }

      .cls-2 {
        fill: #0b133c;
      }

      .cls-3 {
        clip-path: url(#clippath);
      }

      .cls-4 {
        fill: none;
      }
    </style>
    <clipPath id="clippath">
      <rect class="cls-4" width="133.92" height="125.65"/>
    </clipPath>
  </defs>
  <g id="Layer_1-2" data-name="Layer 1">
    <g class="cls-3">
      <path class="cls-1" d="m86.29,94.67h-26.84s0-20.59,0-20.59h17.59c4.73-7.62,12.54-11.42,16.96-13.03l3.31-10.14h-37.86v-20.25h27.49c11.06,0,14.16,9.34,17.79,16.99h18.99s-14.65-43.43-14.65-43.43c-5.73,4.21-7.47,5-13.59,5l-80.35.02-6.23,16.73c6.48,1,14.69,3.89,14.69,7.3l-.04,20.08h-6.83l-9.02,20.75h15.86l.03,18.17c-.04,1.41-1.65,3.71-5.2,5.24-2.37,1.02-6.21,1.59-9.64,1.59l6.43,17.12h79.05c9.89,0,17.09,5.07,17.09,5.07l14.48-42.91h-18.87c-4.2,10.48-12.02,16.31-20.64,16.31"/>
      <path class="cls-2" d="m109.6,82.59h10.32l-10.98,32.57s-6.19-3.18-14.69-3.18H18.11s-3.43-9.15-3.43-9.15c5.9-.49,13.04-5.23,13.14-10.52l-.04-18.29h27.43v24.88h31.12c13.34-.43,20.04-9.79,23.26-16.31M27.82,33.21v17.76s27.4,0,27.4,0v-24.54h31.72c11.28,0,16.04,7.64,20.54,16.99h10.35l-10.98-32.58c-3.49,2.42-7.64,2.6-11.37,2.6H18.07s-3.51,9.45-3.51,9.45c3.32.81,13.18,3.33,13.26,10.33m57.96,26.93c1.61-.91,3.23-1.69,4.83-2.33l.88-2.69H27.78v2.43s-8.28,0-8.28,0l-5.35,12.29h60.61c2.36-3.47,6.19-6.96,11.02-9.7"/>
    </g>
  </g>
</svg>