<?xml version="1.0" encoding="utf-8"?>
<!-- Generator: Adobe Illustrator 27.1.1, SVG Export Plug-In . SVG Version: 6.00 Build 0)  -->
<svg version="1.1" xmlns="http://www.w3.org/2000/svg" xmlns:xlink="http://www.w3.org/1999/xlink" x="0px" y="0px"
	 viewBox="0 0 125.23 120.485" enable-background="new 0 0 125.23 120.485" xml:space="preserve">
<g id="_x32_82__x2B__123">
	<g>
		<g>
			<g>
				<path fill="#FFCE34" d="M75.888,69.232l-18.383,0.002V55.128h12.048c3.239-5.218,8.586-7.824,11.619-8.927l2.267-6.946H57.505
					v-13.87l18.831,0.005c7.571,0,9.701,6.394,12.183,11.63l13.007,0.004L91.496,7.274c-3.925,2.885-5.12,3.426-9.309,3.426
					l-55.031,0.009l-4.268,11.456c4.442,0.685,10.062,2.663,10.062,4.998L32.92,40.918h-4.676l-6.18,14.209h10.862l0.023,12.444
					c-0.027,0.966-1.13,2.541-3.565,3.589c-1.624,0.698-4.256,1.087-6.6,1.091l4.405,11.729l54.141,0.004
					c6.774,0,11.701,3.469,11.701,3.469l9.918-29.39H90.027C87.15,65.239,81.792,69.232,75.888,69.232z"/>
			</g>
			<g>
				<g>
					<path fill="#00053E" d="M91.854,60.958h7.064l-7.522,22.309c0,0-4.241-2.178-10.063-2.178l-52.137-0.005l-2.353-6.263
						c4.043-0.334,8.933-3.579,9.001-7.206l-0.023-12.529H54.61v17.043l21.312-0.002C85.056,71.834,89.649,65.426,91.854,60.958z
						 M35.844,27.141l0.002,12.16H54.61V22.489l21.727,0.005c7.727,0,10.989,5.229,14.071,11.631h7.085L89.97,11.813
						c-2.389,1.66-5.229,1.781-7.783,1.781l-53.021,0.009l-2.407,6.463C29.031,20.619,35.789,22.349,35.844,27.141z M75.541,45.586
						c1.101-0.626,2.21-1.157,3.308-1.595l0.601-1.841H35.815l0.001,1.663h-5.673l-3.661,8.419h41.514
						C69.612,49.853,72.234,47.466,75.541,45.586z"/>
				</g>
			</g>
		</g>
	</g>
	<g>
		<path fill="#FFFFFF" d="M12.884,107.953l-3.235,0.036v-0.893l1.233-0.25c0.036-0.119,0.068-0.336,0.098-0.652
			c0.03-0.315,0.045-0.538,0.045-0.669l0.053-2.035v-4.98l-0.053-2.017c0-0.381-0.012-0.669-0.036-0.865
			c-0.024-0.197-0.06-0.354-0.107-0.473l-1.233-0.232v-0.91l3.235,0.054h8.347l0.268,1.448c0.06,0.25,0.119,0.494,0.179,0.732
			c0.06,0.239,0.131,0.465,0.214,0.679l-0.912,0.375l-0.625-0.965c-0.107-0.071-0.614-0.152-1.519-0.241
			c-0.906-0.089-1.948-0.134-3.127-0.134h-0.912l-0.089,3.592l2.627-0.054c0.346,0,0.637-0.012,0.876-0.036
			c0.238-0.024,0.387-0.047,0.447-0.072l0.357-0.983h0.894l-0.054,1.948l0.054,1.948h-0.894l-0.357-0.983l-1.251-0.071l-2.699-0.054
			v1.019l0.089,3.896h1.305c1.239,0,2.323-0.068,3.252-0.206c0.93-0.137,1.478-0.241,1.645-0.313l0.661-1.144l0.965,0.357
			l-0.787,3.146H12.884z"/>
		<path fill="#FFFFFF" d="M37.043,103.807c0,1.334-0.634,2.416-1.903,3.244s-2.886,1.242-4.853,1.242
			c-1.108,0-2.168-0.119-3.181-0.357c-1.013-0.238-1.924-0.56-2.734-0.965l1.34-3.521l0.983,0.232v1.251
			c0.107,0.072,0.363,0.208,0.769,0.411c0.333,0.167,0.62,0.304,0.858,0.411c0.453,0.191,0.878,0.333,1.278,0.429
			c0.399,0.096,0.813,0.143,1.242,0.143c0.727,0,1.323-0.199,1.787-0.599c0.465-0.399,0.697-0.908,0.697-1.528
			c0-0.548-0.256-0.941-0.769-1.179c-0.274-0.119-0.629-0.244-1.063-0.375c-0.435-0.131-0.944-0.262-1.528-0.393
			c-1.489-0.357-2.705-0.882-3.646-1.573c-0.477-0.357-0.834-0.748-1.073-1.171c-0.238-0.423-0.357-0.908-0.357-1.457
			c0-1.263,0.554-2.296,1.662-3.101c1.108-0.804,2.52-1.207,4.236-1.207c0.583,0,1.12,0.018,1.608,0.054
			c0.489,0.036,0.989,0.101,1.501,0.196c1.001,0.167,1.888,0.37,2.663,0.608l-0.644,1.68c-0.191,0.536-0.37,1.09-0.536,1.662
			l-0.875-0.179v-0.947c-0.072-0.107-0.203-0.215-0.394-0.322c-0.19-0.107-0.489-0.232-0.894-0.375
			c-0.667-0.274-1.454-0.411-2.359-0.411c-0.703,0-1.254,0.137-1.653,0.411c-0.399,0.274-0.599,0.673-0.599,1.197
			c0,0.5,0.339,0.864,1.019,1.09l2.734,0.769c1.728,0.477,2.94,1.084,3.637,1.823C36.694,101.74,37.043,102.675,37.043,103.807z"/>
		<path fill="#FFFFFF" d="M44.294,102.627v0.873c0,0.202,0.012,0.567,0.036,1.096s0.036,0.84,0.036,0.935
			c0,0.309,0.021,0.576,0.062,0.802c0.042,0.226,0.086,0.398,0.134,0.517l1.733,0.249v0.891l-3.825-0.036l-3.235,0.054v-0.894
			l1.233-0.25c0.036-0.119,0.068-0.336,0.098-0.652c0.03-0.315,0.045-0.539,0.045-0.67l0.054-2.038v-4.986l-0.054-2.02
			c0-0.322-0.015-0.599-0.045-0.831s-0.062-0.402-0.098-0.509l-1.233-0.232v-0.912l3.235,0.054l5.487-0.107
			c1.513,0,2.678,0.328,3.494,0.983c0.816,0.656,1.224,1.633,1.224,2.931c0,0.75-0.134,1.424-0.402,2.02
			c-0.268,0.596-0.676,1.12-1.224,1.573c-1.073,0.894-2.491,1.34-4.254,1.34h-0.411c-0.107,0-0.208,0-0.304,0
			c-0.143,0-0.244,0-0.304,0l-0.983-0.146l0.554-1.802l1.073,0.089c0.75,0,1.352-0.232,1.805-0.697
			c0.429-0.488,0.644-1.149,0.644-1.984c0-0.786-0.248-1.394-0.742-1.823c-0.495-0.429-1.177-0.644-2.046-0.644l-0.929,0.054
			c-0.131,0.012-0.271,0.036-0.42,0.071c-0.149,0.036-0.295,0.078-0.438,0.125v4.808V102.627z"/>
		<path fill="#FFFFFF" d="M70.794,101.019c0,2.216-0.757,3.992-2.27,5.326c-1.466,1.299-3.438,1.948-5.916,1.948
			c-2.442,0-4.394-0.652-5.853-1.957s-2.189-3.077-2.189-5.317c0-2.252,0.745-4.027,2.234-5.326s3.467-1.948,5.934-1.948
			c2.467,0,4.426,0.649,5.88,1.948C70.067,96.992,70.794,98.767,70.794,101.019z M66.969,101.019c0-1.549-0.399-2.821-1.197-3.815
			c-0.798-0.995-1.835-1.493-3.11-1.493c-1.263,0-2.291,0.5-3.083,1.501s-1.188,2.27-1.188,3.807c0,1.525,0.399,2.791,1.197,3.798
			c0.798,1.007,1.823,1.51,3.074,1.51s2.282-0.503,3.092-1.51C66.564,103.81,66.969,102.544,66.969,101.019z"/>
		<path fill="#FFFFFF" d="M76.706,101.733v1.77l0.054,2.038c0,0.381,0.012,0.67,0.036,0.867s0.06,0.349,0.107,0.456l1.233,0.25
			v0.894l-3.252-0.054l-3.235,0.054v-0.894l1.233-0.25c0.036-0.119,0.068-0.336,0.099-0.652c0.029-0.315,0.044-0.539,0.044-0.67
			l0.054-2.038v-4.986l-0.054-2.02c0-0.322-0.015-0.599-0.044-0.831c-0.03-0.232-0.063-0.402-0.099-0.509l-1.233-0.232v-0.912
			l3.235,0.054l5.219-0.107c1.596,0,2.806,0.304,3.628,0.912c0.822,0.607,1.233,1.525,1.233,2.752c0,0.798-0.298,1.54-0.894,2.225
			s-1.495,1.147-2.699,1.385l4.808,5.612l0.661,0.268l0.018,0.894c-0.321,0-0.727,0.009-1.215,0.027
			c-0.488,0.018-0.739,0.027-0.75,0.027l-1.895,0.161l-0.447,0.071c-0.584-0.822-1.138-1.602-1.662-2.341
			c-0.393-0.548-0.769-1.061-1.126-1.537l-2.02-2.681H76.706z M76.759,99.91l1.259,0.108c0.992,0,1.757-0.188,2.295-0.563
			c0.538-0.375,0.807-0.962,0.807-1.76c0-0.703-0.222-1.194-0.665-1.475c-0.443-0.28-1.125-0.42-2.047-0.42
			c-0.142,0-0.278,0-0.408,0c-0.13,0-0.284,0-0.461,0c-0.166,0-0.304,0.006-0.417,0.018c-0.112,0.012-0.233,0.042-0.363,0.09V99.91z
			"/>
		<path fill="#FFFFFF" d="M95.949,103.492c0,0.25,0.015,0.619,0.045,1.106c0.029,0.488,0.044,0.797,0.044,0.928
			c0,0.381,0.012,0.669,0.036,0.866s0.06,0.348,0.107,0.455l1.465,0.25v0.892l-3.503-0.036l-3.503,0.054v-0.894l1.483-0.25
			c0.024-0.06,0.045-0.182,0.062-0.366c0.018-0.185,0.051-0.503,0.099-0.956l0.053-2.038V97.98l-0.125-2.002
			c-0.333,0-0.7,0.003-1.099,0.009c-0.399,0.006-0.837,0.051-1.313,0.134c-0.656,0.072-1.043,0.143-1.162,0.214l-0.697,1.341
			l-0.965-0.34l0.429-1.608c0.071-0.262,0.143-0.557,0.214-0.885c0.072-0.328,0.125-0.587,0.161-0.777h12.761
			c0.036,0.25,0.086,0.524,0.152,0.822s0.134,0.578,0.206,0.84l0.447,1.608l-0.965,0.34l-0.715-1.341
			c-0.107-0.059-0.498-0.134-1.17-0.223c-0.673-0.089-1.475-0.134-2.404-0.134l-0.143,1.999V103.492z"/>
		<path fill="#FFFFFF" d="M115.497,103.807c0,1.334-0.634,2.416-1.903,3.244s-2.886,1.242-4.853,1.242
			c-1.108,0-2.168-0.119-3.181-0.357c-1.013-0.238-1.924-0.56-2.734-0.965l1.34-3.521l0.983,0.232v1.251
			c0.107,0.072,0.363,0.208,0.769,0.411c0.333,0.167,0.62,0.304,0.858,0.411c0.453,0.191,0.878,0.333,1.278,0.429
			c0.399,0.096,0.813,0.143,1.242,0.143c0.727,0,1.323-0.199,1.787-0.599c0.465-0.399,0.697-0.908,0.697-1.528
			c0-0.548-0.256-0.941-0.769-1.179c-0.274-0.119-0.629-0.244-1.063-0.375c-0.435-0.131-0.944-0.262-1.528-0.393
			c-1.489-0.357-2.705-0.882-3.646-1.573c-0.477-0.357-0.834-0.748-1.073-1.171c-0.238-0.423-0.357-0.908-0.357-1.457
			c0-1.263,0.554-2.296,1.662-3.101c1.108-0.804,2.52-1.207,4.236-1.207c0.583,0,1.12,0.018,1.608,0.054
			c0.489,0.036,0.989,0.101,1.501,0.196c1.001,0.167,1.888,0.37,2.663,0.608l-0.644,1.68c-0.191,0.536-0.37,1.09-0.536,1.662
			l-0.875-0.179v-0.947c-0.072-0.107-0.203-0.215-0.394-0.322c-0.19-0.107-0.489-0.232-0.894-0.375
			c-0.667-0.274-1.454-0.411-2.359-0.411c-0.703,0-1.254,0.137-1.653,0.411c-0.399,0.274-0.599,0.673-0.599,1.197
			c0,0.5,0.339,0.864,1.019,1.09l2.734,0.769c1.728,0.477,2.94,1.084,3.637,1.823C115.148,101.74,115.497,102.675,115.497,103.807z"
			/>
	</g>
</g>
<g id="_x32_82" display="none">
	<g display="inline">
		<g>
			<g>
				<g>
					<g>
						<g>
							<path fill="#00053E" d="M91.662,60.781h7.064L91.205,83.09c0,0-4.242-2.178-10.064-2.178l-52.137-0.004l-2.353-6.263
								c4.044-0.334,8.933-3.579,9.001-7.206L35.628,54.91h18.789v17.043L75.73,71.95C84.865,71.657,89.457,65.249,91.662,60.781z
								 M35.652,26.964l0.002,12.16h18.764V22.312l21.728,0.005c7.726,0,10.989,5.228,14.071,11.63H97.3l-7.521-22.312
								c-2.39,1.661-5.23,1.781-7.783,1.781l-53.021,0.01l-2.406,6.462C28.839,20.443,35.597,22.172,35.652,26.964z M75.348,45.409
								c1.101-0.625,2.21-1.157,3.308-1.595l0.602-1.841l-43.635,0l0.002,1.663h-5.674l-3.661,8.418l41.514,0.001
								C69.419,49.676,72.042,47.29,75.348,45.409z"/>
						</g>
					</g>
				</g>
			</g>
		</g>
	</g>
	<g display="inline">
		<path d="M-24.189-66.073v-0.647l0.828-0.804c1.991-1.895,2.891-2.902,2.902-4.078c0-0.792-0.384-1.523-1.547-1.523
			c-0.708,0-1.295,0.36-1.655,0.66l-0.336-0.744c0.54-0.456,1.308-0.791,2.207-0.791c1.679,0,2.387,1.151,2.387,2.267
			c0,1.439-1.044,2.603-2.687,4.186l-0.624,0.576v0.024h3.502v0.875H-24.189z"/>
		<path d="M-15.143-72.886h-0.024l-1.355,0.732l-0.204-0.804l1.703-0.912h0.9v7.796h-1.02V-72.886z"/>
		<path d="M-7.342-67.153c0.312,0.204,0.864,0.42,1.392,0.42c0.768,0,1.127-0.384,1.127-0.863c0-0.504-0.3-0.78-1.079-1.068
			c-1.043-0.372-1.535-0.947-1.535-1.643c0-0.935,0.755-1.703,2.003-1.703c0.587,0,1.103,0.168,1.427,0.359l-0.264,0.768
			c-0.227-0.144-0.647-0.335-1.187-0.335c-0.624,0-0.972,0.36-0.972,0.791c0,0.479,0.348,0.695,1.103,0.983
			c1.007,0.384,1.523,0.888,1.523,1.751c0,1.02-0.791,1.739-2.171,1.739c-0.635,0-1.223-0.156-1.631-0.396L-7.342-67.153z"/>
		<path d="M-1.846-74.588h1.056v8.515h-1.056V-74.588z"/>
		<path d="M2.761-73.509c0.012,0.36-0.252,0.648-0.671,0.648c-0.372,0-0.636-0.288-0.636-0.648c0-0.372,0.276-0.66,0.66-0.66
			C2.509-74.169,2.761-73.881,2.761-73.509z M1.586-66.073v-5.805h1.056v5.805H1.586z"/>
		<path d="M4.994-70.307c0-0.6-0.012-1.091-0.048-1.571h0.936l0.059,0.959h0.024c0.288-0.552,0.959-1.091,1.919-1.091
			c0.803,0,2.051,0.48,2.051,2.47v3.466H8.879v-3.346c0-0.936-0.348-1.715-1.343-1.715c-0.695,0-1.235,0.492-1.415,1.079
			c-0.048,0.132-0.072,0.312-0.072,0.492v3.49H4.994V-70.307z"/>
		<path d="M17.255-71.878c-0.024,0.419-0.048,0.887-0.048,1.595v3.37c0,1.331-0.264,2.146-0.827,2.65
			c-0.564,0.528-1.379,0.696-2.111,0.696c-0.696,0-1.463-0.168-1.931-0.48l0.264-0.804c0.384,0.24,0.984,0.456,1.703,0.456
			c1.08,0,1.871-0.564,1.871-2.027v-0.648h-0.024c-0.324,0.54-0.948,0.972-1.847,0.972c-1.439,0-2.471-1.223-2.471-2.831
			c0-1.967,1.284-3.082,2.615-3.082c1.007,0,1.559,0.527,1.811,1.007h0.024l0.048-0.875H17.255z M16.164-69.588
			c0-0.18-0.012-0.336-0.06-0.479c-0.192-0.612-0.708-1.116-1.476-1.116c-1.007,0-1.727,0.852-1.727,2.195
			c0,1.14,0.576,2.087,1.715,2.087c0.648,0,1.235-0.408,1.463-1.079c0.06-0.18,0.084-0.384,0.084-0.564V-69.588z"/>
		<path d="M-19.536-58.582h-2.975l-0.3,2.003c0.18-0.024,0.348-0.048,0.636-0.048c0.6,0,1.199,0.132,1.679,0.419
			c0.611,0.348,1.115,1.02,1.115,2.003c0,1.524-1.211,2.663-2.902,2.663c-0.852,0-1.571-0.24-1.943-0.479l0.264-0.804
			c0.324,0.192,0.959,0.432,1.667,0.432c0.996,0,1.847-0.647,1.847-1.691c-0.012-1.007-0.684-1.727-2.243-1.727
			c-0.444,0-0.792,0.048-1.08,0.084l0.504-3.742h3.73V-58.582z"/>
		<path d="M-12.252-55.655c0,2.651-0.983,4.114-2.711,4.114c-1.523,0-2.555-1.427-2.579-4.006c0-2.614,1.127-4.054,2.71-4.054
			C-13.188-59.601-12.252-58.138-12.252-55.655z M-16.486-55.535c0,2.027,0.623,3.178,1.583,3.178c1.08,0,1.595-1.259,1.595-3.25
			c0-1.919-0.492-3.178-1.583-3.178C-15.814-58.786-16.486-57.658-16.486-55.535z"/>
		<path d="M-5.926-59.145v1.667h1.511v0.803h-1.511v3.13c0,0.72,0.204,1.127,0.791,1.127c0.276,0,0.48-0.036,0.612-0.072
			l0.048,0.792c-0.204,0.084-0.528,0.144-0.936,0.144c-0.492,0-0.888-0.156-1.14-0.444c-0.3-0.312-0.408-0.828-0.408-1.511v-3.167
			h-0.899v-0.803h0.899v-1.391L-5.926-59.145z"/>
		<path d="M-2.626-55.667c0-0.684-0.012-1.271-0.048-1.811h0.923l0.036,1.139h0.048c0.264-0.779,0.899-1.271,1.607-1.271
			c0.12,0,0.204,0.012,0.3,0.036v0.996c-0.108-0.024-0.216-0.036-0.36-0.036c-0.744,0-1.271,0.564-1.416,1.355
			c-0.024,0.144-0.048,0.312-0.048,0.492v3.094h-1.043V-55.667z"/>
		<path d="M5.052-51.673l-0.084-0.731H4.932c-0.324,0.456-0.947,0.863-1.775,0.863c-1.175,0-1.775-0.828-1.775-1.667
			c0-1.403,1.247-2.171,3.49-2.159v-0.12c0-0.479-0.132-1.343-1.319-1.343c-0.54,0-1.103,0.168-1.511,0.432l-0.24-0.695
			c0.48-0.312,1.175-0.516,1.907-0.516c1.775,0,2.206,1.211,2.206,2.375v2.171c0,0.503,0.024,0.995,0.096,1.391H5.052z
			 M4.896-54.636c-1.151-0.024-2.459,0.18-2.459,1.307c0,0.684,0.456,1.008,0.996,1.008c0.755,0,1.235-0.48,1.403-0.972
			c0.036-0.108,0.06-0.228,0.06-0.336V-54.636z"/>
		<path d="M12.36-51.889c-0.276,0.144-0.888,0.336-1.667,0.336c-1.751,0-2.891-1.188-2.891-2.962c0-1.787,1.224-3.083,3.119-3.083
			c0.623,0,1.175,0.156,1.463,0.3l-0.24,0.815c-0.252-0.143-0.647-0.276-1.223-0.276c-1.332,0-2.051,0.984-2.051,2.195
			c0,1.343,0.864,2.171,2.015,2.171c0.6,0,0.996-0.156,1.295-0.288L12.36-51.889z"/>
		<path d="M15.241-54.815h0.024c0.144-0.204,0.348-0.456,0.516-0.66l1.703-2.003h1.271l-2.243,2.387l2.554,3.418h-1.283
			l-2.003-2.783l-0.54,0.6v2.183h-1.043v-8.515h1.043V-54.815z"/>
		<path d="M21.805-59.109c0.012,0.36-0.252,0.648-0.671,0.648c-0.372,0-0.636-0.288-0.636-0.648c0-0.372,0.276-0.66,0.66-0.66
			C21.553-59.769,21.805-59.481,21.805-59.109z M20.63-51.673v-5.805h1.056v5.805H20.63z"/>
		<path d="M24.038-55.907c0-0.6-0.012-1.091-0.048-1.571h0.935l0.06,0.959h0.024c0.288-0.552,0.96-1.091,1.919-1.091
			c0.803,0,2.051,0.479,2.051,2.47v3.466h-1.056v-3.346c0-0.936-0.348-1.715-1.343-1.715c-0.695,0-1.235,0.492-1.415,1.079
			c-0.048,0.132-0.072,0.312-0.072,0.492v3.49h-1.056V-55.907z"/>
		<path d="M36.299-57.478c-0.024,0.419-0.048,0.887-0.048,1.595v3.37c0,1.331-0.264,2.146-0.827,2.65
			c-0.564,0.528-1.379,0.696-2.111,0.696c-0.696,0-1.463-0.168-1.931-0.48l0.264-0.804c0.384,0.24,0.984,0.456,1.703,0.456
			c1.08,0,1.871-0.564,1.871-2.027v-0.648h-0.024c-0.324,0.54-0.948,0.972-1.847,0.972c-1.439,0-2.471-1.224-2.471-2.831
			c0-1.967,1.284-3.082,2.615-3.082c1.007,0,1.559,0.527,1.811,1.007h0.024l0.048-0.875H36.299z M35.207-55.188
			c0-0.18-0.012-0.336-0.059-0.479c-0.192-0.612-0.708-1.116-1.476-1.116c-1.007,0-1.727,0.852-1.727,2.195
			c0,1.14,0.576,2.087,1.715,2.087c0.647,0,1.235-0.408,1.463-1.079c0.06-0.18,0.084-0.384,0.084-0.564V-55.188z"/>
	</g>
	<g display="inline">
		<path d="M125.752-59.227c0,2.146-1.487,3.082-2.89,3.082c-1.571,0-2.783-1.151-2.783-2.986c0-1.943,1.271-3.082,2.878-3.082
			C124.625-62.213,125.752-61.002,125.752-59.227z M121.146-59.167c0,1.271,0.732,2.231,1.763,2.231
			c1.007,0,1.763-0.947,1.763-2.255c0-0.983-0.492-2.23-1.739-2.23C121.687-61.421,121.146-60.27,121.146-59.167z"/>
		<path d="M131.944-57.859c0,0.6,0.012,1.127,0.048,1.583h-0.936l-0.06-0.947h-0.024c-0.276,0.468-0.887,1.079-1.919,1.079
			c-0.911,0-2.003-0.503-2.003-2.542v-3.394h1.056v3.214c0,1.104,0.336,1.847,1.295,1.847c0.708,0,1.199-0.492,1.391-0.959
			c0.06-0.156,0.096-0.348,0.096-0.54v-3.562h1.056V-57.859z"/>
		<path d="M134.97-63.748v1.667h1.511v0.803h-1.511v3.13c0,0.72,0.204,1.127,0.791,1.127c0.276,0,0.48-0.036,0.612-0.072
			l0.048,0.792c-0.204,0.084-0.528,0.144-0.936,0.144c-0.492,0-0.888-0.156-1.14-0.444c-0.3-0.312-0.408-0.828-0.408-1.511v-3.167
			h-0.899v-0.803h0.899v-1.392L134.97-63.748z"/>
		<path d="M137.671-64.791h1.056v8.515h-1.056V-64.791z"/>
		<path d="M141.678-63.712c0.012,0.36-0.252,0.648-0.671,0.648c-0.372,0-0.636-0.288-0.636-0.648c0-0.372,0.276-0.66,0.66-0.66
			C141.426-64.372,141.678-64.084,141.678-63.712z M140.503-56.276v-5.805h1.056v5.805H140.503z"/>
		<path d="M143.311-60.51c0-0.6-0.012-1.091-0.048-1.571h0.936l0.06,0.959h0.024c0.288-0.552,0.96-1.091,1.919-1.091
			c0.803,0,2.051,0.479,2.051,2.47v3.466h-1.056v-3.346c0-0.936-0.348-1.715-1.343-1.715c-0.695,0-1.235,0.492-1.415,1.079
			c-0.048,0.132-0.072,0.312-0.072,0.492v3.49h-1.056V-60.51z"/>
		<path d="M150.559-58.987c0.024,1.427,0.935,2.015,1.991,2.015c0.755,0,1.211-0.132,1.607-0.3l0.18,0.756
			c-0.372,0.168-1.007,0.36-1.931,0.36c-1.787,0-2.855-1.176-2.855-2.927c0-1.751,1.032-3.13,2.723-3.13
			c1.895,0,2.399,1.667,2.399,2.734c0,0.216-0.024,0.384-0.036,0.492H150.559z M153.653-59.743c0.012-0.671-0.276-1.715-1.463-1.715
			c-1.067,0-1.535,0.983-1.619,1.715H153.653z"/>
		<path d="M158.382-57.356c0.312,0.204,0.864,0.42,1.392,0.42c0.768,0,1.127-0.384,1.127-0.863c0-0.504-0.3-0.78-1.079-1.068
			c-1.043-0.372-1.535-0.947-1.535-1.643c0-0.935,0.755-1.703,2.003-1.703c0.587,0,1.103,0.167,1.427,0.359l-0.264,0.768
			c-0.227-0.144-0.647-0.335-1.187-0.335c-0.624,0-0.972,0.36-0.972,0.791c0,0.48,0.348,0.695,1.104,0.983
			c1.007,0.384,1.523,0.888,1.523,1.751c0,1.02-0.792,1.739-2.171,1.739c-0.635,0-1.223-0.156-1.631-0.396L158.382-57.356z"/>
		<path d="M163.866-58.987c0.024,1.427,0.935,2.015,1.991,2.015c0.755,0,1.211-0.132,1.607-0.3l0.18,0.756
			c-0.372,0.168-1.007,0.36-1.931,0.36c-1.787,0-2.854-1.176-2.854-2.927c0-1.751,1.032-3.13,2.723-3.13
			c1.895,0,2.399,1.667,2.399,2.734c0,0.216-0.024,0.384-0.036,0.492H163.866z M166.96-59.743c0.012-0.671-0.276-1.715-1.463-1.715
			c-1.067,0-1.535,0.983-1.619,1.715H166.96z"/>
		<path d="M170.562-63.748v1.667h1.511v0.803h-1.511v3.13c0,0.72,0.204,1.127,0.792,1.127c0.276,0,0.48-0.036,0.611-0.072
			l0.048,0.792c-0.204,0.084-0.528,0.144-0.936,0.144c-0.492,0-0.888-0.156-1.14-0.444c-0.3-0.312-0.408-0.828-0.408-1.511v-3.167
			h-0.9v-0.803h0.9v-1.392L170.562-63.748z"/>
		<path d="M174.534-63.748v1.667h1.511v0.803h-1.511v3.13c0,0.72,0.204,1.127,0.792,1.127c0.276,0,0.479-0.036,0.612-0.072
			l0.048,0.792c-0.204,0.084-0.528,0.144-0.936,0.144c-0.492,0-0.888-0.156-1.14-0.444c-0.3-0.312-0.408-0.828-0.408-1.511v-3.167
			h-0.899v-0.803h0.899v-1.392L174.534-63.748z"/>
		<path d="M178.409-63.712c0.012,0.36-0.252,0.648-0.671,0.648c-0.372,0-0.636-0.288-0.636-0.648c0-0.372,0.276-0.66,0.66-0.66
			C178.157-64.372,178.409-64.084,178.409-63.712z M177.234-56.276v-5.805h1.056v5.805H177.234z"/>
		<path d="M180.042-60.51c0-0.6-0.012-1.091-0.048-1.571h0.936l0.06,0.959h0.024c0.288-0.552,0.96-1.091,1.919-1.091
			c0.803,0,2.051,0.479,2.051,2.47v3.466h-1.056v-3.346c0-0.936-0.348-1.715-1.343-1.715c-0.695,0-1.235,0.492-1.415,1.079
			c-0.048,0.132-0.072,0.312-0.072,0.492v3.49h-1.056V-60.51z"/>
		<path d="M191.704-62.081c-0.024,0.419-0.048,0.887-0.048,1.595v3.37c0,1.331-0.264,2.146-0.827,2.65
			c-0.564,0.528-1.379,0.696-2.111,0.696c-0.696,0-1.463-0.168-1.931-0.48l0.264-0.804c0.384,0.24,0.984,0.456,1.703,0.456
			c1.08,0,1.871-0.564,1.871-2.027v-0.648H190.6c-0.324,0.54-0.948,0.972-1.847,0.972c-1.439,0-2.471-1.223-2.471-2.831
			c0-1.967,1.284-3.082,2.615-3.082c1.007,0,1.559,0.527,1.811,1.007h0.024l0.048-0.875H191.704z M190.612-59.791
			c0-0.18-0.012-0.336-0.06-0.479c-0.192-0.612-0.708-1.116-1.476-1.116c-1.007,0-1.727,0.852-1.727,2.195
			c0,1.14,0.576,2.087,1.715,2.087c0.647,0,1.235-0.408,1.463-1.079c0.06-0.18,0.084-0.384,0.084-0.564V-59.791z"/>
		<path d="M193.266-57.356c0.312,0.204,0.864,0.42,1.392,0.42c0.768,0,1.127-0.384,1.127-0.863c0-0.504-0.3-0.78-1.079-1.068
			c-1.043-0.372-1.535-0.947-1.535-1.643c0-0.935,0.755-1.703,2.003-1.703c0.587,0,1.103,0.167,1.427,0.359l-0.264,0.768
			c-0.227-0.144-0.648-0.335-1.187-0.335c-0.624,0-0.972,0.36-0.972,0.791c0,0.48,0.348,0.695,1.104,0.983
			c1.007,0.384,1.523,0.888,1.523,1.751c0,1.02-0.792,1.739-2.171,1.739c-0.635,0-1.223-0.156-1.631-0.396L193.266-57.356z"/>
		<path d="M197.91-61.122c0-0.444,0.3-0.756,0.72-0.756c0.42,0,0.696,0.312,0.708,0.756c0,0.419-0.276,0.744-0.72,0.744
			C198.198-60.378,197.91-60.702,197.91-61.122z M197.91-56.888c0-0.444,0.3-0.755,0.72-0.755c0.42,0,0.696,0.312,0.708,0.755
			c0,0.42-0.276,0.744-0.72,0.744C198.198-56.145,197.91-56.468,197.91-56.888z"/>
		<path d="M120.247-42.5c0-0.444,0.3-0.756,0.72-0.756c0.42,0,0.707,0.312,0.707,0.756c0,0.432-0.276,0.755-0.72,0.755
			C120.535-41.745,120.247-42.068,120.247-42.5z"/>
		<path d="M127.709-49.672v0.696l-3.395,7.1h-1.091l3.382-6.896v-0.024h-3.814v-0.875H127.709z"/>
		<path d="M133.457-48.785h-2.975l-0.3,2.003c0.18-0.024,0.348-0.048,0.636-0.048c0.6,0,1.199,0.132,1.679,0.419
			c0.611,0.348,1.115,1.019,1.115,2.003c0,1.523-1.212,2.663-2.902,2.663c-0.852,0-1.571-0.24-1.943-0.479l0.264-0.804
			c0.324,0.192,0.959,0.432,1.667,0.432c0.996,0,1.847-0.647,1.847-1.691c-0.012-1.007-0.684-1.727-2.243-1.727
			c-0.444,0-0.792,0.048-1.08,0.084l0.504-3.742h3.73V-48.785z"/>
		<path d="M137.838-45.786c0-0.744-0.024-1.343-0.048-1.895h0.947l0.048,0.995h0.024c0.432-0.708,1.115-1.127,2.062-1.127
			c1.403,0,2.459,1.187,2.459,2.95c0,2.087-1.271,3.118-2.639,3.118c-0.768,0-1.439-0.336-1.787-0.912h-0.024v3.154h-1.044V-45.786z
			 M138.882-44.239c0,0.156,0.024,0.3,0.048,0.432c0.192,0.732,0.828,1.235,1.583,1.235c1.115,0,1.763-0.911,1.763-2.243
			c0-1.163-0.611-2.159-1.727-2.159c-0.72,0-1.391,0.516-1.595,1.307c-0.036,0.132-0.072,0.288-0.072,0.432V-44.239z"/>
		<path d="M152.463-44.827c0,2.146-1.487,3.082-2.89,3.082c-1.571,0-2.783-1.151-2.783-2.986c0-1.943,1.271-3.082,2.878-3.082
			C151.336-47.813,152.463-46.602,152.463-44.827z M147.857-44.767c0,1.271,0.732,2.231,1.763,2.231
			c1.007,0,1.763-0.947,1.763-2.255c0-0.983-0.492-2.23-1.739-2.23C148.397-47.021,147.857-45.87,147.857-44.767z"/>
		<path d="M158.655-43.459c0,0.6,0.012,1.127,0.048,1.583h-0.936l-0.06-0.947h-0.024c-0.276,0.467-0.887,1.079-1.919,1.079
			c-0.911,0-2.003-0.503-2.003-2.542v-3.394h1.056v3.214c0,1.103,0.336,1.847,1.296,1.847c0.708,0,1.199-0.492,1.391-0.959
			c0.06-0.156,0.096-0.348,0.096-0.54v-3.562h1.056V-43.459z"/>
		<path d="M161.682-49.348v1.667h1.511v0.803h-1.511v3.13c0,0.72,0.204,1.127,0.792,1.127c0.276,0,0.479-0.036,0.611-0.072
			l0.048,0.792c-0.204,0.084-0.528,0.144-0.936,0.144c-0.492,0-0.888-0.156-1.14-0.444c-0.3-0.312-0.408-0.828-0.408-1.511v-3.167
			h-0.899v-0.803h0.899v-1.391L161.682-49.348z"/>
		<path d="M164.238-42.956c0.312,0.204,0.864,0.42,1.392,0.42c0.768,0,1.127-0.384,1.127-0.863c0-0.504-0.3-0.78-1.079-1.067
			c-1.043-0.372-1.535-0.948-1.535-1.644c0-0.935,0.755-1.703,2.003-1.703c0.587,0,1.104,0.167,1.427,0.359l-0.264,0.768
			c-0.228-0.144-0.647-0.335-1.187-0.335c-0.624,0-0.972,0.36-0.972,0.792c0,0.479,0.348,0.695,1.104,0.983
			c1.007,0.384,1.523,0.888,1.523,1.751c0,1.02-0.791,1.739-2.171,1.739c-0.635,0-1.223-0.156-1.631-0.396L164.238-42.956z"/>
		<path d="M170.309-49.312c0.012,0.36-0.252,0.648-0.671,0.648c-0.372,0-0.636-0.288-0.636-0.648c0-0.372,0.276-0.66,0.66-0.66
			C170.057-49.972,170.309-49.684,170.309-49.312z M169.134-41.876v-5.805h1.056v5.805H169.134z"/>
		<path d="M176.955-50.392v7.016c0,0.516,0.012,1.103,0.048,1.499h-0.947l-0.048-1.007h-0.024c-0.324,0.647-1.032,1.139-1.979,1.139
			c-1.403,0-2.483-1.187-2.483-2.95c-0.012-1.931,1.188-3.118,2.603-3.118c0.888,0,1.487,0.419,1.751,0.887h0.024v-3.466H176.955z
			 M175.9-45.318c0-0.132-0.012-0.312-0.048-0.444c-0.156-0.672-0.731-1.224-1.523-1.224c-1.091,0-1.739,0.959-1.739,2.243
			c0,1.175,0.576,2.146,1.715,2.146c0.708,0,1.355-0.468,1.547-1.259c0.036-0.144,0.048-0.288,0.048-0.456V-45.318z"/>
		<path d="M179.298-44.587c0.024,1.427,0.935,2.015,1.991,2.015c0.755,0,1.212-0.132,1.607-0.3l0.18,0.756
			c-0.372,0.168-1.007,0.36-1.931,0.36c-1.787,0-2.855-1.175-2.855-2.927c0-1.751,1.032-3.13,2.723-3.13
			c1.895,0,2.399,1.667,2.399,2.734c0,0.216-0.024,0.384-0.036,0.492H179.298z M182.392-45.343c0.012-0.671-0.276-1.715-1.463-1.715
			c-1.067,0-1.535,0.983-1.619,1.715H182.392z"/>
	</g>
	<g display="inline">
		<path d="M-21.415-37.598h-0.999v-6.623l-2.003,0.736v-0.902l2.847-1.069h0.156V-37.598z"/>
		<path d="M-14.146-41.035c-0.208,0.247-0.456,0.446-0.744,0.596c-0.288,0.15-0.604,0.226-0.948,0.226
			c-0.451,0-0.844-0.111-1.179-0.333c-0.334-0.222-0.593-0.535-0.776-0.937c-0.183-0.403-0.274-0.848-0.274-1.335
			c0-0.523,0.1-0.994,0.298-1.413c0.199-0.419,0.481-0.739,0.846-0.961s0.792-0.333,1.278-0.333c0.773,0,1.383,0.289,1.829,0.867
			c0.446,0.579,0.669,1.367,0.669,2.366v0.29c0,1.522-0.301,2.633-0.902,3.333c-0.602,0.7-1.509,1.059-2.723,1.077h-0.193v-0.843
			h0.209c0.82-0.014,1.45-0.228,1.891-0.641C-14.426-39.489-14.186-40.142-14.146-41.035z M-15.677-41.035
			c0.333,0,0.64-0.102,0.921-0.306c0.281-0.204,0.486-0.457,0.615-0.757v-0.397c0-0.652-0.142-1.182-0.424-1.59
			s-0.641-0.612-1.074-0.612c-0.437,0-0.788,0.167-1.053,0.502c-0.265,0.335-0.397,0.776-0.397,1.324
			c0,0.534,0.128,0.973,0.384,1.318C-16.45-41.208-16.107-41.035-15.677-41.035z"/>
		<path d="M-2.943-40.439c0,0.884-0.202,1.597-0.607,2.138s-0.953,0.811-1.644,0.811c-0.706,0-1.26-0.224-1.665-0.671v2.798h-0.994
			v-8.046h0.908l0.048,0.645c0.405-0.501,0.967-0.752,1.687-0.752c0.698,0,1.25,0.263,1.657,0.79
			c0.406,0.526,0.609,1.259,0.609,2.197V-40.439z M-3.937-40.552c0-0.655-0.14-1.173-0.419-1.552s-0.663-0.569-1.149-0.569
			c-0.602,0-1.053,0.267-1.354,0.8v2.777c0.297,0.53,0.752,0.795,1.364,0.795c0.476,0,0.855-0.189,1.136-0.567
			C-4.078-39.246-3.937-39.807-3.937-40.552z"/>
		<path d="M0.217-44.816v1.407h1.085v0.768H0.217v3.608c0,0.233,0.048,0.408,0.145,0.524c0.097,0.117,0.261,0.175,0.494,0.175
			c0.115,0,0.272-0.021,0.473-0.064v0.801c-0.261,0.071-0.516,0.107-0.763,0.107c-0.444,0-0.779-0.134-1.004-0.403
			s-0.338-0.65-0.338-1.144v-3.604h-1.058v-0.768h1.058v-1.407H0.217z"/>
		<path d="M7.365-37.598H6.371v-8.25h0.994V-37.598z"/>
		<path d="M11.917-37.49c-0.788,0-1.429-0.259-1.923-0.776c-0.494-0.517-0.741-1.209-0.741-2.076v-0.183
			c0-0.577,0.11-1.091,0.331-1.544c0.22-0.453,0.528-0.807,0.924-1.063c0.396-0.256,0.824-0.384,1.286-0.384
			c0.755,0,1.343,0.249,1.762,0.747s0.628,1.21,0.628,2.138v0.414h-3.937c0.014,0.573,0.182,1.036,0.502,1.389
			c0.321,0.353,0.728,0.529,1.222,0.529c0.351,0,0.648-0.072,0.892-0.215s0.457-0.333,0.639-0.569l0.607,0.473
			C13.621-37.864,12.891-37.49,11.917-37.49z M11.793-42.7c-0.401,0-0.738,0.146-1.01,0.438c-0.272,0.292-0.44,0.701-0.505,1.228
			h2.911v-0.075c-0.029-0.505-0.165-0.896-0.408-1.174C12.538-42.562,12.209-42.7,11.793-42.7z"/>
		<path d="M19.47-37.598c-0.057-0.115-0.104-0.319-0.14-0.612c-0.462,0.48-1.013,0.72-1.654,0.72c-0.573,0-1.043-0.162-1.41-0.486
			c-0.367-0.324-0.55-0.735-0.55-1.232c0-0.605,0.23-1.075,0.69-1.41c0.46-0.334,1.107-0.502,1.942-0.502h0.967v-0.457
			c0-0.347-0.104-0.624-0.312-0.83c-0.208-0.206-0.514-0.309-0.918-0.309c-0.354,0-0.652,0.089-0.892,0.269s-0.36,0.396-0.36,0.65
			h-0.999c0-0.29,0.103-0.57,0.309-0.841c0.206-0.27,0.485-0.484,0.838-0.642c0.353-0.158,0.74-0.236,1.163-0.236
			c0.669,0,1.194,0.167,1.574,0.502c0.379,0.335,0.577,0.796,0.591,1.383v2.675c0,0.534,0.068,0.958,0.204,1.273v0.086H19.47z
			 M17.821-38.355c0.312,0,0.607-0.081,0.886-0.242s0.481-0.371,0.607-0.628v-1.192h-0.779c-1.217,0-1.826,0.356-1.826,1.069
			c0,0.312,0.104,0.555,0.312,0.73S17.496-38.355,17.821-38.355z"/>
		<path d="M22.174-40.552c0-0.892,0.211-1.608,0.634-2.151c0.422-0.542,0.976-0.813,1.66-0.813c0.68,0,1.219,0.233,1.617,0.698
			v-3.029h0.994v8.25h-0.913l-0.048-0.623c-0.397,0.487-0.951,0.73-1.66,0.73c-0.673,0-1.222-0.276-1.646-0.827
			c-0.424-0.551-0.636-1.271-0.636-2.159V-40.552z M23.168-40.439c0,0.659,0.136,1.174,0.408,1.547s0.648,0.559,1.128,0.559
			c0.63,0,1.09-0.283,1.38-0.849v-2.669c-0.297-0.548-0.754-0.822-1.37-0.822c-0.487,0-0.867,0.188-1.139,0.564
			S23.168-41.177,23.168-40.439z"/>
		<path d="M29.175-44.951c0-0.161,0.049-0.297,0.148-0.408c0.098-0.111,0.244-0.167,0.438-0.167s0.34,0.056,0.44,0.167
			s0.15,0.247,0.15,0.408s-0.05,0.295-0.15,0.403s-0.247,0.161-0.44,0.161s-0.339-0.054-0.438-0.161
			C29.224-44.655,29.175-44.79,29.175-44.951z M30.249-37.598h-0.994v-5.812h0.994V-37.598z"/>
		<path d="M33.329-43.409l0.032,0.73c0.444-0.559,1.024-0.838,1.74-0.838c1.228,0,1.848,0.693,1.858,2.079v3.84h-0.994v-3.846
			c-0.003-0.419-0.1-0.729-0.287-0.929c-0.188-0.201-0.481-0.301-0.878-0.301c-0.322,0-0.605,0.086-0.849,0.258
			s-0.433,0.397-0.569,0.677v4.141h-0.994v-5.812H33.329z"/>
		<path d="M38.772-40.552c0-0.906,0.209-1.626,0.628-2.162c0.419-0.535,0.974-0.803,1.665-0.803c0.709,0,1.262,0.25,1.66,0.752
			l0.048-0.645h0.908v5.672c0,0.752-0.223,1.345-0.669,1.778c-0.445,0.433-1.044,0.65-1.796,0.65c-0.419,0-0.829-0.089-1.23-0.269
			s-0.707-0.424-0.918-0.736l0.516-0.596c0.426,0.526,0.947,0.79,1.563,0.79c0.483,0,0.86-0.136,1.131-0.408
			c0.27-0.272,0.405-0.655,0.405-1.149v-0.5c-0.397,0.458-0.94,0.688-1.627,0.688c-0.68,0-1.231-0.274-1.652-0.822
			C38.982-38.86,38.772-39.606,38.772-40.552z M39.771-40.439c0,0.655,0.134,1.17,0.403,1.544c0.269,0.374,0.645,0.561,1.128,0.561
			c0.626,0,1.087-0.285,1.38-0.854v-2.653c-0.304-0.555-0.761-0.833-1.37-0.833c-0.483,0-0.861,0.188-1.133,0.564
			S39.771-41.177,39.771-40.439z"/>
	</g>
	<g display="inline">
		<path fill="#00053E" d="M12.884,107.953l-3.235,0.036v-0.893l1.233-0.25c0.036-0.119,0.068-0.336,0.098-0.652
			c0.03-0.315,0.045-0.538,0.045-0.669l0.053-2.035v-4.98l-0.053-2.017c0-0.381-0.012-0.669-0.036-0.865
			c-0.024-0.197-0.06-0.354-0.107-0.473l-1.233-0.232v-0.91l3.235,0.054h8.347l0.268,1.448c0.06,0.25,0.119,0.494,0.179,0.732
			c0.06,0.239,0.131,0.465,0.214,0.679l-0.912,0.375l-0.625-0.965c-0.107-0.071-0.614-0.152-1.519-0.241
			c-0.906-0.089-1.948-0.134-3.127-0.134h-0.912l-0.089,3.592l2.627-0.054c0.346,0,0.637-0.012,0.876-0.036
			c0.238-0.024,0.387-0.047,0.447-0.072l0.357-0.983h0.894l-0.054,1.948l0.054,1.948h-0.894l-0.357-0.983l-1.251-0.071l-2.699-0.054
			v1.019l0.089,3.896h1.305c1.239,0,2.323-0.068,3.252-0.206c0.93-0.137,1.478-0.241,1.645-0.313l0.661-1.144l0.965,0.357
			l-0.787,3.146H12.884z"/>
		<path fill="#00053E" d="M37.043,103.807c0,1.334-0.634,2.416-1.903,3.244s-2.886,1.242-4.853,1.242
			c-1.108,0-2.168-0.119-3.181-0.357c-1.013-0.238-1.924-0.56-2.734-0.965l1.34-3.521l0.983,0.232v1.251
			c0.107,0.072,0.363,0.208,0.769,0.411c0.333,0.167,0.62,0.304,0.858,0.411c0.453,0.191,0.878,0.333,1.278,0.429
			c0.399,0.096,0.813,0.143,1.242,0.143c0.727,0,1.323-0.199,1.787-0.599c0.465-0.399,0.697-0.908,0.697-1.528
			c0-0.548-0.256-0.941-0.769-1.179c-0.274-0.119-0.629-0.244-1.063-0.375c-0.435-0.131-0.944-0.262-1.528-0.393
			c-1.489-0.357-2.705-0.882-3.646-1.573c-0.477-0.357-0.834-0.748-1.073-1.171c-0.238-0.423-0.357-0.908-0.357-1.457
			c0-1.263,0.554-2.296,1.662-3.101c1.108-0.804,2.52-1.207,4.236-1.207c0.583,0,1.12,0.018,1.608,0.054
			c0.489,0.036,0.989,0.101,1.501,0.196c1.001,0.167,1.888,0.37,2.663,0.608l-0.644,1.68c-0.191,0.536-0.37,1.09-0.536,1.662
			l-0.875-0.179v-0.947c-0.072-0.107-0.203-0.215-0.394-0.322c-0.19-0.107-0.489-0.232-0.894-0.375
			c-0.667-0.274-1.454-0.411-2.359-0.411c-0.703,0-1.254,0.137-1.653,0.411c-0.399,0.274-0.599,0.673-0.599,1.197
			c0,0.5,0.339,0.864,1.019,1.09l2.734,0.769c1.728,0.477,2.94,1.084,3.637,1.823C36.694,101.74,37.043,102.675,37.043,103.807z"/>
		<path fill="#00053E" d="M44.294,102.627v0.873c0,0.202,0.012,0.567,0.036,1.096s0.036,0.84,0.036,0.935
			c0,0.309,0.021,0.576,0.062,0.802c0.042,0.226,0.086,0.398,0.134,0.517l1.733,0.249v0.891l-3.825-0.036l-3.235,0.054v-0.894
			l1.233-0.25c0.036-0.119,0.068-0.336,0.098-0.652c0.03-0.315,0.045-0.539,0.045-0.67l0.054-2.038v-4.986l-0.054-2.02
			c0-0.322-0.015-0.599-0.045-0.831s-0.062-0.402-0.098-0.509l-1.233-0.232v-0.912l3.235,0.054l5.487-0.107
			c1.513,0,2.678,0.328,3.494,0.983c0.816,0.656,1.224,1.633,1.224,2.931c0,0.75-0.134,1.424-0.402,2.02
			c-0.268,0.596-0.676,1.12-1.224,1.573c-1.073,0.894-2.491,1.34-4.254,1.34h-0.411c-0.107,0-0.208,0-0.304,0
			c-0.143,0-0.244,0-0.304,0l-0.983-0.146l0.554-1.802l1.073,0.089c0.75,0,1.352-0.232,1.805-0.697
			c0.429-0.488,0.644-1.149,0.644-1.984c0-0.786-0.248-1.394-0.742-1.823c-0.495-0.429-1.177-0.644-2.046-0.644l-0.929,0.054
			c-0.131,0.012-0.271,0.036-0.42,0.071c-0.149,0.036-0.295,0.078-0.438,0.125v4.808V102.627z"/>
		<path fill="#00053E" d="M70.794,101.019c0,2.216-0.757,3.992-2.27,5.326c-1.466,1.299-3.438,1.948-5.916,1.948
			c-2.442,0-4.394-0.652-5.853-1.957s-2.189-3.077-2.189-5.317c0-2.252,0.745-4.027,2.234-5.326s3.467-1.948,5.934-1.948
			c2.467,0,4.426,0.649,5.88,1.948C70.067,96.992,70.794,98.767,70.794,101.019z M66.969,101.019c0-1.549-0.399-2.821-1.197-3.815
			c-0.798-0.995-1.835-1.493-3.11-1.493c-1.263,0-2.291,0.5-3.083,1.501s-1.188,2.27-1.188,3.807c0,1.525,0.399,2.791,1.197,3.798
			c0.798,1.007,1.823,1.51,3.074,1.51s2.282-0.503,3.092-1.51C66.564,103.81,66.969,102.544,66.969,101.019z"/>
		<path fill="#00053E" d="M76.706,101.733v1.77l0.054,2.038c0,0.381,0.012,0.67,0.036,0.867s0.06,0.349,0.107,0.456l1.233,0.25
			v0.894l-3.252-0.054l-3.235,0.054v-0.894l1.233-0.25c0.036-0.119,0.068-0.336,0.099-0.652c0.029-0.315,0.044-0.539,0.044-0.67
			l0.054-2.038v-4.986l-0.054-2.02c0-0.322-0.015-0.599-0.044-0.831c-0.03-0.232-0.063-0.402-0.099-0.509l-1.233-0.232v-0.912
			l3.235,0.054l5.219-0.107c1.596,0,2.806,0.304,3.628,0.912c0.822,0.607,1.233,1.525,1.233,2.752c0,0.798-0.298,1.54-0.894,2.225
			s-1.495,1.147-2.699,1.385l4.808,5.612l0.661,0.268l0.018,0.894c-0.321,0-0.727,0.009-1.215,0.027
			c-0.488,0.018-0.739,0.027-0.75,0.027l-1.895,0.161l-0.447,0.071c-0.584-0.822-1.138-1.602-1.662-2.341
			c-0.393-0.548-0.769-1.061-1.126-1.537l-2.02-2.681H76.706z M76.759,99.91l1.259,0.108c0.992,0,1.757-0.188,2.295-0.563
			c0.538-0.375,0.807-0.962,0.807-1.76c0-0.703-0.222-1.194-0.665-1.475c-0.443-0.28-1.125-0.42-2.047-0.42
			c-0.142,0-0.278,0-0.408,0c-0.13,0-0.284,0-0.461,0c-0.166,0-0.304,0.006-0.417,0.018c-0.112,0.012-0.233,0.042-0.363,0.09V99.91z
			"/>
		<path fill="#00053E" d="M95.949,103.492c0,0.25,0.015,0.619,0.045,1.106c0.029,0.488,0.044,0.797,0.044,0.928
			c0,0.381,0.012,0.669,0.036,0.866s0.06,0.348,0.107,0.455l1.465,0.25v0.892l-3.503-0.036l-3.503,0.054v-0.894l1.483-0.25
			c0.024-0.06,0.045-0.182,0.062-0.366c0.018-0.185,0.051-0.503,0.099-0.956l0.053-2.038V97.98l-0.125-2.002
			c-0.333,0-0.7,0.003-1.099,0.009c-0.399,0.006-0.837,0.051-1.313,0.134c-0.656,0.072-1.043,0.143-1.162,0.214l-0.697,1.341
			l-0.965-0.34l0.429-1.608c0.071-0.262,0.143-0.557,0.214-0.885c0.072-0.328,0.125-0.587,0.161-0.777h12.761
			c0.036,0.25,0.086,0.524,0.152,0.822s0.134,0.578,0.206,0.84l0.447,1.608l-0.965,0.34l-0.715-1.341
			c-0.107-0.059-0.498-0.134-1.17-0.223c-0.673-0.089-1.475-0.134-2.404-0.134l-0.143,1.999V103.492z"/>
		<path fill="#00053E" d="M115.497,103.807c0,1.334-0.634,2.416-1.903,3.244s-2.886,1.242-4.853,1.242
			c-1.108,0-2.168-0.119-3.181-0.357c-1.013-0.238-1.924-0.56-2.734-0.965l1.34-3.521l0.983,0.232v1.251
			c0.107,0.072,0.363,0.208,0.769,0.411c0.333,0.167,0.62,0.304,0.858,0.411c0.453,0.191,0.878,0.333,1.278,0.429
			c0.399,0.096,0.813,0.143,1.242,0.143c0.727,0,1.323-0.199,1.787-0.599c0.465-0.399,0.697-0.908,0.697-1.528
			c0-0.548-0.256-0.941-0.769-1.179c-0.274-0.119-0.629-0.244-1.063-0.375c-0.435-0.131-0.944-0.262-1.528-0.393
			c-1.489-0.357-2.705-0.882-3.646-1.573c-0.477-0.357-0.834-0.748-1.073-1.171c-0.238-0.423-0.357-0.908-0.357-1.457
			c0-1.263,0.554-2.296,1.662-3.101c1.108-0.804,2.52-1.207,4.236-1.207c0.583,0,1.12,0.018,1.608,0.054
			c0.489,0.036,0.989,0.101,1.501,0.196c1.001,0.167,1.888,0.37,2.663,0.608l-0.644,1.68c-0.191,0.536-0.37,1.09-0.536,1.662
			l-0.875-0.179v-0.947c-0.072-0.107-0.203-0.215-0.394-0.322c-0.19-0.107-0.489-0.232-0.894-0.375
			c-0.667-0.274-1.454-0.411-2.359-0.411c-0.703,0-1.254,0.137-1.653,0.411c-0.399,0.274-0.599,0.673-0.599,1.197
			c0,0.5,0.339,0.864,1.019,1.09l2.734,0.769c1.728,0.477,2.94,1.084,3.637,1.823C115.148,101.74,115.497,102.675,115.497,103.807z"
			/>
	</g>
</g>
<g id="Black" display="none">
	<g display="inline">
		<g>
			<g>
				<g>
					<g>
						<g>
							<path d="M91.662,60.781h7.064L91.205,83.09c0,0-4.242-2.178-10.064-2.178l-52.137-0.004l-2.353-6.263
								c4.044-0.334,8.933-3.579,9.001-7.206L35.628,54.91h18.789v17.043L75.73,71.95C84.865,71.657,89.457,65.249,91.662,60.781z
								 M35.652,26.964l0.002,12.16h18.764V22.312l21.728,0.005c7.726,0,10.989,5.228,14.071,11.63H97.3l-7.521-22.312
								c-2.39,1.661-5.23,1.781-7.783,1.781l-53.021,0.01l-2.406,6.462C28.839,20.443,35.597,22.172,35.652,26.964z M75.348,45.409
								c1.101-0.625,2.21-1.157,3.308-1.595l0.602-1.841l-43.635,0l0.002,1.663h-5.674l-3.661,8.418l41.514,0.001
								C69.419,49.676,72.042,47.29,75.348,45.409z"/>
						</g>
					</g>
				</g>
			</g>
		</g>
	</g>
	<g display="inline">
		<path d="M12.884,107.953l-3.235,0.036v-0.893l1.233-0.25c0.036-0.119,0.068-0.336,0.098-0.652c0.03-0.315,0.045-0.538,0.045-0.669
			l0.053-2.035v-4.98l-0.053-2.017c0-0.381-0.012-0.669-0.036-0.865c-0.024-0.197-0.06-0.354-0.107-0.473l-1.233-0.232v-0.91
			l3.235,0.054h8.347l0.268,1.448c0.06,0.25,0.119,0.494,0.179,0.732c0.06,0.239,0.131,0.465,0.214,0.679l-0.912,0.375l-0.625-0.965
			c-0.107-0.071-0.614-0.152-1.519-0.241c-0.906-0.089-1.948-0.134-3.127-0.134h-0.912l-0.089,3.592l2.627-0.054
			c0.346,0,0.637-0.012,0.876-0.036c0.238-0.024,0.387-0.047,0.447-0.072l0.357-0.983h0.894l-0.054,1.948l0.054,1.948h-0.894
			l-0.357-0.983l-1.251-0.071l-2.699-0.054v1.019l0.089,3.896h1.305c1.239,0,2.323-0.068,3.252-0.206
			c0.93-0.137,1.478-0.241,1.645-0.313l0.661-1.144l0.965,0.357l-0.787,3.146H12.884z"/>
		<path d="M37.043,103.807c0,1.334-0.634,2.416-1.903,3.244s-2.886,1.242-4.853,1.242c-1.108,0-2.168-0.119-3.181-0.357
			c-1.013-0.238-1.924-0.56-2.734-0.965l1.34-3.521l0.983,0.232v1.251c0.107,0.072,0.363,0.208,0.769,0.411
			c0.333,0.167,0.62,0.304,0.858,0.411c0.453,0.191,0.878,0.333,1.278,0.429c0.399,0.096,0.813,0.143,1.242,0.143
			c0.727,0,1.323-0.199,1.787-0.599c0.465-0.399,0.697-0.908,0.697-1.528c0-0.548-0.256-0.941-0.769-1.179
			c-0.274-0.119-0.629-0.244-1.063-0.375c-0.435-0.131-0.944-0.262-1.528-0.393c-1.489-0.357-2.705-0.882-3.646-1.573
			c-0.477-0.357-0.834-0.748-1.073-1.171c-0.238-0.423-0.357-0.908-0.357-1.457c0-1.263,0.554-2.296,1.662-3.101
			c1.108-0.804,2.52-1.207,4.236-1.207c0.583,0,1.12,0.018,1.608,0.054c0.489,0.036,0.989,0.101,1.501,0.196
			c1.001,0.167,1.888,0.37,2.663,0.608l-0.644,1.68c-0.191,0.536-0.37,1.09-0.536,1.662l-0.875-0.179v-0.947
			c-0.072-0.107-0.203-0.215-0.394-0.322c-0.19-0.107-0.489-0.232-0.894-0.375c-0.667-0.274-1.454-0.411-2.359-0.411
			c-0.703,0-1.254,0.137-1.653,0.411c-0.399,0.274-0.599,0.673-0.599,1.197c0,0.5,0.339,0.864,1.019,1.09l2.734,0.769
			c1.728,0.477,2.94,1.084,3.637,1.823C36.694,101.74,37.043,102.675,37.043,103.807z"/>
		<path d="M44.294,102.627v0.873c0,0.202,0.012,0.567,0.036,1.096s0.036,0.84,0.036,0.935c0,0.309,0.021,0.576,0.062,0.802
			c0.042,0.226,0.086,0.398,0.134,0.517l1.733,0.249v0.891l-3.825-0.036l-3.235,0.054v-0.894l1.233-0.25
			c0.036-0.119,0.068-0.336,0.098-0.652c0.03-0.315,0.045-0.539,0.045-0.67l0.054-2.038v-4.986l-0.054-2.02
			c0-0.322-0.015-0.599-0.045-0.831s-0.062-0.402-0.098-0.509l-1.233-0.232v-0.912l3.235,0.054l5.487-0.107
			c1.513,0,2.678,0.328,3.494,0.983c0.816,0.656,1.224,1.633,1.224,2.931c0,0.75-0.134,1.424-0.402,2.02
			c-0.268,0.596-0.676,1.12-1.224,1.573c-1.073,0.894-2.491,1.34-4.254,1.34h-0.411c-0.107,0-0.208,0-0.304,0
			c-0.143,0-0.244,0-0.304,0l-0.983-0.146l0.554-1.802l1.073,0.089c0.75,0,1.352-0.232,1.805-0.697
			c0.429-0.488,0.644-1.149,0.644-1.984c0-0.786-0.248-1.394-0.742-1.823c-0.495-0.429-1.177-0.644-2.046-0.644l-0.929,0.054
			c-0.131,0.012-0.271,0.036-0.42,0.071c-0.149,0.036-0.295,0.078-0.438,0.125v4.808V102.627z"/>
		<path d="M70.794,101.019c0,2.216-0.757,3.992-2.27,5.326c-1.466,1.299-3.438,1.948-5.916,1.948c-2.442,0-4.394-0.652-5.853-1.957
			s-2.189-3.077-2.189-5.317c0-2.252,0.745-4.027,2.234-5.326s3.467-1.948,5.934-1.948c2.467,0,4.426,0.649,5.88,1.948
			C70.067,96.992,70.794,98.767,70.794,101.019z M66.969,101.019c0-1.549-0.399-2.821-1.197-3.815
			c-0.798-0.995-1.835-1.493-3.11-1.493c-1.263,0-2.291,0.5-3.083,1.501s-1.188,2.27-1.188,3.807c0,1.525,0.399,2.791,1.197,3.798
			c0.798,1.007,1.823,1.51,3.074,1.51s2.282-0.503,3.092-1.51C66.564,103.81,66.969,102.544,66.969,101.019z"/>
		<path d="M76.706,101.733v1.77l0.054,2.038c0,0.381,0.012,0.67,0.036,0.867s0.06,0.349,0.107,0.456l1.233,0.25v0.894l-3.252-0.054
			l-3.235,0.054v-0.894l1.233-0.25c0.036-0.119,0.068-0.336,0.099-0.652c0.029-0.315,0.044-0.539,0.044-0.67l0.054-2.038v-4.986
			l-0.054-2.02c0-0.322-0.015-0.599-0.044-0.831c-0.03-0.232-0.063-0.402-0.099-0.509l-1.233-0.232v-0.912l3.235,0.054l5.219-0.107
			c1.596,0,2.806,0.304,3.628,0.912c0.822,0.607,1.233,1.525,1.233,2.752c0,0.798-0.298,1.54-0.894,2.225s-1.495,1.147-2.699,1.385
			l4.808,5.612l0.661,0.268l0.018,0.894c-0.321,0-0.727,0.009-1.215,0.027c-0.488,0.018-0.739,0.027-0.75,0.027l-1.895,0.161
			l-0.447,0.071c-0.584-0.822-1.138-1.602-1.662-2.341c-0.393-0.548-0.769-1.061-1.126-1.537l-2.02-2.681H76.706z M76.759,99.91
			l1.259,0.108c0.992,0,1.757-0.188,2.295-0.563c0.538-0.375,0.807-0.962,0.807-1.76c0-0.703-0.222-1.194-0.665-1.475
			c-0.443-0.28-1.125-0.42-2.047-0.42c-0.142,0-0.278,0-0.408,0c-0.13,0-0.284,0-0.461,0c-0.166,0-0.304,0.006-0.417,0.018
			c-0.112,0.012-0.233,0.042-0.363,0.09V99.91z"/>
		<path d="M95.949,103.492c0,0.25,0.015,0.619,0.045,1.106c0.029,0.488,0.044,0.797,0.044,0.928c0,0.381,0.012,0.669,0.036,0.866
			s0.06,0.348,0.107,0.455l1.465,0.25v0.892l-3.503-0.036l-3.503,0.054v-0.894l1.483-0.25c0.024-0.06,0.045-0.182,0.062-0.366
			c0.018-0.185,0.051-0.503,0.099-0.956l0.053-2.038V97.98l-0.125-2.002c-0.333,0-0.7,0.003-1.099,0.009
			c-0.399,0.006-0.837,0.051-1.313,0.134c-0.656,0.072-1.043,0.143-1.162,0.214l-0.697,1.341l-0.965-0.34l0.429-1.608
			c0.071-0.262,0.143-0.557,0.214-0.885c0.072-0.328,0.125-0.587,0.161-0.777h12.761c0.036,0.25,0.086,0.524,0.152,0.822
			s0.134,0.578,0.206,0.84l0.447,1.608l-0.965,0.34l-0.715-1.341c-0.107-0.059-0.498-0.134-1.17-0.223
			c-0.673-0.089-1.475-0.134-2.404-0.134l-0.143,1.999V103.492z"/>
		<path d="M115.497,103.807c0,1.334-0.634,2.416-1.903,3.244s-2.886,1.242-4.853,1.242c-1.108,0-2.168-0.119-3.181-0.357
			c-1.013-0.238-1.924-0.56-2.734-0.965l1.34-3.521l0.983,0.232v1.251c0.107,0.072,0.363,0.208,0.769,0.411
			c0.333,0.167,0.62,0.304,0.858,0.411c0.453,0.191,0.878,0.333,1.278,0.429c0.399,0.096,0.813,0.143,1.242,0.143
			c0.727,0,1.323-0.199,1.787-0.599c0.465-0.399,0.697-0.908,0.697-1.528c0-0.548-0.256-0.941-0.769-1.179
			c-0.274-0.119-0.629-0.244-1.063-0.375c-0.435-0.131-0.944-0.262-1.528-0.393c-1.489-0.357-2.705-0.882-3.646-1.573
			c-0.477-0.357-0.834-0.748-1.073-1.171c-0.238-0.423-0.357-0.908-0.357-1.457c0-1.263,0.554-2.296,1.662-3.101
			c1.108-0.804,2.52-1.207,4.236-1.207c0.583,0,1.12,0.018,1.608,0.054c0.489,0.036,0.989,0.101,1.501,0.196
			c1.001,0.167,1.888,0.37,2.663,0.608l-0.644,1.68c-0.191,0.536-0.37,1.09-0.536,1.662l-0.875-0.179v-0.947
			c-0.072-0.107-0.203-0.215-0.394-0.322c-0.19-0.107-0.489-0.232-0.894-0.375c-0.667-0.274-1.454-0.411-2.359-0.411
			c-0.703,0-1.254,0.137-1.653,0.411c-0.399,0.274-0.599,0.673-0.599,1.197c0,0.5,0.339,0.864,1.019,1.09l2.734,0.769
			c1.728,0.477,2.94,1.084,3.637,1.823C115.148,101.74,115.497,102.675,115.497,103.807z"/>
	</g>
</g>
<g id="_x31_23" display="none">
	<g display="inline">
		<g>
			<g>
				<g>
					<g>
						<g>
							<path fill="#FFCE34" d="M91.662,60.781h7.064L91.205,83.09c0,0-4.242-2.178-10.064-2.178l-52.137-0.004l-2.353-6.263
								c4.044-0.334,8.933-3.579,9.001-7.206L35.628,54.91h18.789v17.043L75.73,71.95C84.865,71.657,89.457,65.249,91.662,60.781z
								 M35.652,26.964l0.002,12.16h18.764V22.312l21.728,0.005c7.726,0,10.989,5.228,14.071,11.63H97.3l-7.521-22.312
								c-2.39,1.661-5.23,1.781-7.783,1.781l-53.021,0.01l-2.406,6.462C28.839,20.443,35.597,22.172,35.652,26.964z M75.348,45.409
								c1.101-0.625,2.21-1.157,3.308-1.595l0.602-1.841l-43.635,0l0.002,1.663h-5.674l-3.661,8.418l41.514,0.001
								C69.419,49.676,72.042,47.29,75.348,45.409z"/>
						</g>
					</g>
				</g>
			</g>
		</g>
	</g>
	<g display="inline">
		<path fill="#FFCE34" d="M12.884,107.953l-3.235,0.036v-0.893l1.233-0.25c0.036-0.119,0.068-0.336,0.098-0.652
			c0.03-0.315,0.045-0.538,0.045-0.669l0.053-2.035v-4.98l-0.053-2.017c0-0.381-0.012-0.669-0.036-0.865
			c-0.024-0.197-0.06-0.354-0.107-0.473l-1.233-0.232v-0.91l3.235,0.054h8.347l0.268,1.448c0.06,0.25,0.119,0.494,0.179,0.732
			c0.06,0.239,0.131,0.465,0.214,0.679l-0.912,0.375l-0.625-0.965c-0.107-0.071-0.614-0.152-1.519-0.241
			c-0.906-0.089-1.948-0.134-3.127-0.134h-0.912l-0.089,3.592l2.627-0.054c0.346,0,0.637-0.012,0.876-0.036
			c0.238-0.024,0.387-0.047,0.447-0.072l0.357-0.983h0.894l-0.054,1.948l0.054,1.948h-0.894l-0.357-0.983l-1.251-0.071l-2.699-0.054
			v1.019l0.089,3.896h1.305c1.239,0,2.323-0.068,3.252-0.206c0.93-0.137,1.478-0.241,1.645-0.313l0.661-1.144l0.965,0.357
			l-0.787,3.146H12.884z"/>
		<path fill="#FFCE34" d="M37.043,103.807c0,1.334-0.634,2.416-1.903,3.244s-2.886,1.242-4.853,1.242
			c-1.108,0-2.168-0.119-3.181-0.357c-1.013-0.238-1.924-0.56-2.734-0.965l1.34-3.521l0.983,0.232v1.251
			c0.107,0.072,0.363,0.208,0.769,0.411c0.333,0.167,0.62,0.304,0.858,0.411c0.453,0.191,0.878,0.333,1.278,0.429
			c0.399,0.096,0.813,0.143,1.242,0.143c0.727,0,1.323-0.199,1.787-0.599c0.465-0.399,0.697-0.908,0.697-1.528
			c0-0.548-0.256-0.941-0.769-1.179c-0.274-0.119-0.629-0.244-1.063-0.375c-0.435-0.131-0.944-0.262-1.528-0.393
			c-1.489-0.357-2.705-0.882-3.646-1.573c-0.477-0.357-0.834-0.748-1.073-1.171c-0.238-0.423-0.357-0.908-0.357-1.457
			c0-1.263,0.554-2.296,1.662-3.101c1.108-0.804,2.52-1.207,4.236-1.207c0.583,0,1.12,0.018,1.608,0.054
			c0.489,0.036,0.989,0.101,1.501,0.196c1.001,0.167,1.888,0.37,2.663,0.608l-0.644,1.68c-0.191,0.536-0.37,1.09-0.536,1.662
			l-0.875-0.179v-0.947c-0.072-0.107-0.203-0.215-0.394-0.322c-0.19-0.107-0.489-0.232-0.894-0.375
			c-0.667-0.274-1.454-0.411-2.359-0.411c-0.703,0-1.254,0.137-1.653,0.411c-0.399,0.274-0.599,0.673-0.599,1.197
			c0,0.5,0.339,0.864,1.019,1.09l2.734,0.769c1.728,0.477,2.94,1.084,3.637,1.823C36.694,101.74,37.043,102.675,37.043,103.807z"/>
		<path fill="#FFCE34" d="M44.294,102.627v0.873c0,0.202,0.012,0.567,0.036,1.096s0.036,0.84,0.036,0.935
			c0,0.309,0.021,0.576,0.062,0.802c0.042,0.226,0.086,0.398,0.134,0.517l1.733,0.249v0.891l-3.825-0.036l-3.235,0.054v-0.894
			l1.233-0.25c0.036-0.119,0.068-0.336,0.098-0.652c0.03-0.315,0.045-0.539,0.045-0.67l0.054-2.038v-4.986l-0.054-2.02
			c0-0.322-0.015-0.599-0.045-0.831s-0.062-0.402-0.098-0.509l-1.233-0.232v-0.912l3.235,0.054l5.487-0.107
			c1.513,0,2.678,0.328,3.494,0.983c0.816,0.656,1.224,1.633,1.224,2.931c0,0.75-0.134,1.424-0.402,2.02
			c-0.268,0.596-0.676,1.12-1.224,1.573c-1.073,0.894-2.491,1.34-4.254,1.34h-0.411c-0.107,0-0.208,0-0.304,0
			c-0.143,0-0.244,0-0.304,0l-0.983-0.146l0.554-1.802l1.073,0.089c0.75,0,1.352-0.232,1.805-0.697
			c0.429-0.488,0.644-1.149,0.644-1.984c0-0.786-0.248-1.394-0.742-1.823c-0.495-0.429-1.177-0.644-2.046-0.644l-0.929,0.054
			c-0.131,0.012-0.271,0.036-0.42,0.071c-0.149,0.036-0.295,0.078-0.438,0.125v4.808V102.627z"/>
		<path fill="#FFCE34" d="M70.794,101.019c0,2.216-0.757,3.992-2.27,5.326c-1.466,1.299-3.438,1.948-5.916,1.948
			c-2.442,0-4.394-0.652-5.853-1.957s-2.189-3.077-2.189-5.317c0-2.252,0.745-4.027,2.234-5.326s3.467-1.948,5.934-1.948
			c2.467,0,4.426,0.649,5.88,1.948C70.067,96.992,70.794,98.767,70.794,101.019z M66.969,101.019c0-1.549-0.399-2.821-1.197-3.815
			c-0.798-0.995-1.835-1.493-3.11-1.493c-1.263,0-2.291,0.5-3.083,1.501s-1.188,2.27-1.188,3.807c0,1.525,0.399,2.791,1.197,3.798
			c0.798,1.007,1.823,1.51,3.074,1.51s2.282-0.503,3.092-1.51C66.564,103.81,66.969,102.544,66.969,101.019z"/>
		<path fill="#FFCE34" d="M76.706,101.733v1.77l0.054,2.038c0,0.381,0.012,0.67,0.036,0.867s0.06,0.349,0.107,0.456l1.233,0.25
			v0.894l-3.252-0.054l-3.235,0.054v-0.894l1.233-0.25c0.036-0.119,0.068-0.336,0.099-0.652c0.029-0.315,0.044-0.539,0.044-0.67
			l0.054-2.038v-4.986l-0.054-2.02c0-0.322-0.015-0.599-0.044-0.831c-0.03-0.232-0.063-0.402-0.099-0.509l-1.233-0.232v-0.912
			l3.235,0.054l5.219-0.107c1.596,0,2.806,0.304,3.628,0.912c0.822,0.607,1.233,1.525,1.233,2.752c0,0.798-0.298,1.54-0.894,2.225
			s-1.495,1.147-2.699,1.385l4.808,5.612l0.661,0.268l0.018,0.894c-0.321,0-0.727,0.009-1.215,0.027
			c-0.488,0.018-0.739,0.027-0.75,0.027l-1.895,0.161l-0.447,0.071c-0.584-0.822-1.138-1.602-1.662-2.341
			c-0.393-0.548-0.769-1.061-1.126-1.537l-2.02-2.681H76.706z M76.759,99.91l1.259,0.108c0.992,0,1.757-0.188,2.295-0.563
			c0.538-0.375,0.807-0.962,0.807-1.76c0-0.703-0.222-1.194-0.665-1.475c-0.443-0.28-1.125-0.42-2.047-0.42
			c-0.142,0-0.278,0-0.408,0c-0.13,0-0.284,0-0.461,0c-0.166,0-0.304,0.006-0.417,0.018c-0.112,0.012-0.233,0.042-0.363,0.09V99.91z
			"/>
		<path fill="#FFCE34" d="M95.949,103.492c0,0.25,0.015,0.619,0.045,1.106c0.029,0.488,0.044,0.797,0.044,0.928
			c0,0.381,0.012,0.669,0.036,0.866s0.06,0.348,0.107,0.455l1.465,0.25v0.892l-3.503-0.036l-3.503,0.054v-0.894l1.483-0.25
			c0.024-0.06,0.045-0.182,0.062-0.366c0.018-0.185,0.051-0.503,0.099-0.956l0.053-2.038V97.98l-0.125-2.002
			c-0.333,0-0.7,0.003-1.099,0.009c-0.399,0.006-0.837,0.051-1.313,0.134c-0.656,0.072-1.043,0.143-1.162,0.214l-0.697,1.341
			l-0.965-0.34l0.429-1.608c0.071-0.262,0.143-0.557,0.214-0.885c0.072-0.328,0.125-0.587,0.161-0.777h12.761
			c0.036,0.25,0.086,0.524,0.152,0.822s0.134,0.578,0.206,0.84l0.447,1.608l-0.965,0.34l-0.715-1.341
			c-0.107-0.059-0.498-0.134-1.17-0.223c-0.673-0.089-1.475-0.134-2.404-0.134l-0.143,1.999V103.492z"/>
		<path fill="#FFCE34" d="M115.497,103.807c0,1.334-0.634,2.416-1.903,3.244s-2.886,1.242-4.853,1.242
			c-1.108,0-2.168-0.119-3.181-0.357c-1.013-0.238-1.924-0.56-2.734-0.965l1.34-3.521l0.983,0.232v1.251
			c0.107,0.072,0.363,0.208,0.769,0.411c0.333,0.167,0.62,0.304,0.858,0.411c0.453,0.191,0.878,0.333,1.278,0.429
			c0.399,0.096,0.813,0.143,1.242,0.143c0.727,0,1.323-0.199,1.787-0.599c0.465-0.399,0.697-0.908,0.697-1.528
			c0-0.548-0.256-0.941-0.769-1.179c-0.274-0.119-0.629-0.244-1.063-0.375c-0.435-0.131-0.944-0.262-1.528-0.393
			c-1.489-0.357-2.705-0.882-3.646-1.573c-0.477-0.357-0.834-0.748-1.073-1.171c-0.238-0.423-0.357-0.908-0.357-1.457
			c0-1.263,0.554-2.296,1.662-3.101c1.108-0.804,2.52-1.207,4.236-1.207c0.583,0,1.12,0.018,1.608,0.054
			c0.489,0.036,0.989,0.101,1.501,0.196c1.001,0.167,1.888,0.37,2.663,0.608l-0.644,1.68c-0.191,0.536-0.37,1.09-0.536,1.662
			l-0.875-0.179v-0.947c-0.072-0.107-0.203-0.215-0.394-0.322c-0.19-0.107-0.489-0.232-0.894-0.375
			c-0.667-0.274-1.454-0.411-2.359-0.411c-0.703,0-1.254,0.137-1.653,0.411c-0.399,0.274-0.599,0.673-0.599,1.197
			c0,0.5,0.339,0.864,1.019,1.09l2.734,0.769c1.728,0.477,2.94,1.084,3.637,1.823C115.148,101.74,115.497,102.675,115.497,103.807z"
			/>
	</g>
</g>
<g id="White" display="none">
	<g display="inline">
		<g>
			<g>
				<g>
					<g>
						<g>
							<path fill="#FFFFFF" d="M91.662,60.781h7.064L91.205,83.09c0,0-4.242-2.178-10.064-2.178l-52.137-0.004l-2.353-6.263
								c4.044-0.334,8.933-3.579,9.001-7.206L35.628,54.91h18.789v17.043L75.73,71.95C84.865,71.657,89.457,65.249,91.662,60.781z
								 M35.652,26.964l0.002,12.16h18.764V22.312l21.728,0.005c7.726,0,10.989,5.228,14.071,11.63H97.3l-7.521-22.312
								c-2.39,1.661-5.23,1.781-7.783,1.781l-53.021,0.01l-2.406,6.462C28.839,20.443,35.597,22.172,35.652,26.964z M75.348,45.409
								c1.101-0.625,2.21-1.157,3.308-1.595l0.602-1.841l-43.635,0l0.002,1.663h-5.674l-3.661,8.418l41.514,0.001
								C69.419,49.676,72.042,47.29,75.348,45.409z"/>
						</g>
					</g>
				</g>
			</g>
		</g>
	</g>
	<g display="inline">
		<path fill="#FFFFFF" d="M12.884,107.953l-3.235,0.036v-0.893l1.233-0.25c0.036-0.119,0.068-0.336,0.098-0.652
			c0.03-0.315,0.045-0.538,0.045-0.669l0.053-2.035v-4.98l-0.053-2.017c0-0.381-0.012-0.669-0.036-0.865
			c-0.024-0.197-0.06-0.354-0.107-0.473l-1.233-0.232v-0.91l3.235,0.054h8.347l0.268,1.448c0.06,0.25,0.119,0.494,0.179,0.732
			c0.06,0.239,0.131,0.465,0.214,0.679l-0.912,0.375l-0.625-0.965c-0.107-0.071-0.614-0.152-1.519-0.241
			c-0.906-0.089-1.948-0.134-3.127-0.134h-0.912l-0.089,3.592l2.627-0.054c0.346,0,0.637-0.012,0.876-0.036
			c0.238-0.024,0.387-0.047,0.447-0.072l0.357-0.983h0.894l-0.054,1.948l0.054,1.948h-0.894l-0.357-0.983l-1.251-0.071l-2.699-0.054
			v1.019l0.089,3.896h1.305c1.239,0,2.323-0.068,3.252-0.206c0.93-0.137,1.478-0.241,1.645-0.313l0.661-1.144l0.965,0.357
			l-0.787,3.146H12.884z"/>
		<path fill="#FFFFFF" d="M37.043,103.807c0,1.334-0.634,2.416-1.903,3.244s-2.886,1.242-4.853,1.242
			c-1.108,0-2.168-0.119-3.181-0.357c-1.013-0.238-1.924-0.56-2.734-0.965l1.34-3.521l0.983,0.232v1.251
			c0.107,0.072,0.363,0.208,0.769,0.411c0.333,0.167,0.62,0.304,0.858,0.411c0.453,0.191,0.878,0.333,1.278,0.429
			c0.399,0.096,0.813,0.143,1.242,0.143c0.727,0,1.323-0.199,1.787-0.599c0.465-0.399,0.697-0.908,0.697-1.528
			c0-0.548-0.256-0.941-0.769-1.179c-0.274-0.119-0.629-0.244-1.063-0.375c-0.435-0.131-0.944-0.262-1.528-0.393
			c-1.489-0.357-2.705-0.882-3.646-1.573c-0.477-0.357-0.834-0.748-1.073-1.171c-0.238-0.423-0.357-0.908-0.357-1.457
			c0-1.263,0.554-2.296,1.662-3.101c1.108-0.804,2.52-1.207,4.236-1.207c0.583,0,1.12,0.018,1.608,0.054
			c0.489,0.036,0.989,0.101,1.501,0.196c1.001,0.167,1.888,0.37,2.663,0.608l-0.644,1.68c-0.191,0.536-0.37,1.09-0.536,1.662
			l-0.875-0.179v-0.947c-0.072-0.107-0.203-0.215-0.394-0.322c-0.19-0.107-0.489-0.232-0.894-0.375
			c-0.667-0.274-1.454-0.411-2.359-0.411c-0.703,0-1.254,0.137-1.653,0.411c-0.399,0.274-0.599,0.673-0.599,1.197
			c0,0.5,0.339,0.864,1.019,1.09l2.734,0.769c1.728,0.477,2.94,1.084,3.637,1.823C36.694,101.74,37.043,102.675,37.043,103.807z"/>
		<path fill="#FFFFFF" d="M44.294,102.627v0.873c0,0.202,0.012,0.567,0.036,1.096s0.036,0.84,0.036,0.935
			c0,0.309,0.021,0.576,0.062,0.802c0.042,0.226,0.086,0.398,0.134,0.517l1.733,0.249v0.891l-3.825-0.036l-3.235,0.054v-0.894
			l1.233-0.25c0.036-0.119,0.068-0.336,0.098-0.652c0.03-0.315,0.045-0.539,0.045-0.67l0.054-2.038v-4.986l-0.054-2.02
			c0-0.322-0.015-0.599-0.045-0.831s-0.062-0.402-0.098-0.509l-1.233-0.232v-0.912l3.235,0.054l5.487-0.107
			c1.513,0,2.678,0.328,3.494,0.983c0.816,0.656,1.224,1.633,1.224,2.931c0,0.75-0.134,1.424-0.402,2.02
			c-0.268,0.596-0.676,1.12-1.224,1.573c-1.073,0.894-2.491,1.34-4.254,1.34h-0.411c-0.107,0-0.208,0-0.304,0
			c-0.143,0-0.244,0-0.304,0l-0.983-0.146l0.554-1.802l1.073,0.089c0.75,0,1.352-0.232,1.805-0.697
			c0.429-0.488,0.644-1.149,0.644-1.984c0-0.786-0.248-1.394-0.742-1.823c-0.495-0.429-1.177-0.644-2.046-0.644l-0.929,0.054
			c-0.131,0.012-0.271,0.036-0.42,0.071c-0.149,0.036-0.295,0.078-0.438,0.125v4.808V102.627z"/>
		<path fill="#FFFFFF" d="M70.794,101.019c0,2.216-0.757,3.992-2.27,5.326c-1.466,1.299-3.438,1.948-5.916,1.948
			c-2.442,0-4.394-0.652-5.853-1.957s-2.189-3.077-2.189-5.317c0-2.252,0.745-4.027,2.234-5.326s3.467-1.948,5.934-1.948
			c2.467,0,4.426,0.649,5.88,1.948C70.067,96.992,70.794,98.767,70.794,101.019z M66.969,101.019c0-1.549-0.399-2.821-1.197-3.815
			c-0.798-0.995-1.835-1.493-3.11-1.493c-1.263,0-2.291,0.5-3.083,1.501s-1.188,2.27-1.188,3.807c0,1.525,0.399,2.791,1.197,3.798
			c0.798,1.007,1.823,1.51,3.074,1.51s2.282-0.503,3.092-1.51C66.564,103.81,66.969,102.544,66.969,101.019z"/>
		<path fill="#FFFFFF" d="M76.706,101.733v1.77l0.054,2.038c0,0.381,0.012,0.67,0.036,0.867s0.06,0.349,0.107,0.456l1.233,0.25
			v0.894l-3.252-0.054l-3.235,0.054v-0.894l1.233-0.25c0.036-0.119,0.068-0.336,0.099-0.652c0.029-0.315,0.044-0.539,0.044-0.67
			l0.054-2.038v-4.986l-0.054-2.02c0-0.322-0.015-0.599-0.044-0.831c-0.03-0.232-0.063-0.402-0.099-0.509l-1.233-0.232v-0.912
			l3.235,0.054l5.219-0.107c1.596,0,2.806,0.304,3.628,0.912c0.822,0.607,1.233,1.525,1.233,2.752c0,0.798-0.298,1.54-0.894,2.225
			s-1.495,1.147-2.699,1.385l4.808,5.612l0.661,0.268l0.018,0.894c-0.321,0-0.727,0.009-1.215,0.027
			c-0.488,0.018-0.739,0.027-0.75,0.027l-1.895,0.161l-0.447,0.071c-0.584-0.822-1.138-1.602-1.662-2.341
			c-0.393-0.548-0.769-1.061-1.126-1.537l-2.02-2.681H76.706z M76.759,99.91l1.259,0.108c0.992,0,1.757-0.188,2.295-0.563
			c0.538-0.375,0.807-0.962,0.807-1.76c0-0.703-0.222-1.194-0.665-1.475c-0.443-0.28-1.125-0.42-2.047-0.42
			c-0.142,0-0.278,0-0.408,0c-0.13,0-0.284,0-0.461,0c-0.166,0-0.304,0.006-0.417,0.018c-0.112,0.012-0.233,0.042-0.363,0.09V99.91z
			"/>
		<path fill="#FFFFFF" d="M95.949,103.492c0,0.25,0.015,0.619,0.045,1.106c0.029,0.488,0.044,0.797,0.044,0.928
			c0,0.381,0.012,0.669,0.036,0.866s0.06,0.348,0.107,0.455l1.465,0.25v0.892l-3.503-0.036l-3.503,0.054v-0.894l1.483-0.25
			c0.024-0.06,0.045-0.182,0.062-0.366c0.018-0.185,0.051-0.503,0.099-0.956l0.053-2.038V97.98l-0.125-2.002
			c-0.333,0-0.7,0.003-1.099,0.009c-0.399,0.006-0.837,0.051-1.313,0.134c-0.656,0.072-1.043,0.143-1.162,0.214l-0.697,1.341
			l-0.965-0.34l0.429-1.608c0.071-0.262,0.143-0.557,0.214-0.885c0.072-0.328,0.125-0.587,0.161-0.777h12.761
			c0.036,0.25,0.086,0.524,0.152,0.822s0.134,0.578,0.206,0.84l0.447,1.608l-0.965,0.34l-0.715-1.341
			c-0.107-0.059-0.498-0.134-1.17-0.223c-0.673-0.089-1.475-0.134-2.404-0.134l-0.143,1.999V103.492z"/>
		<path fill="#FFFFFF" d="M115.497,103.807c0,1.334-0.634,2.416-1.903,3.244s-2.886,1.242-4.853,1.242
			c-1.108,0-2.168-0.119-3.181-0.357c-1.013-0.238-1.924-0.56-2.734-0.965l1.34-3.521l0.983,0.232v1.251
			c0.107,0.072,0.363,0.208,0.769,0.411c0.333,0.167,0.62,0.304,0.858,0.411c0.453,0.191,0.878,0.333,1.278,0.429
			c0.399,0.096,0.813,0.143,1.242,0.143c0.727,0,1.323-0.199,1.787-0.599c0.465-0.399,0.697-0.908,0.697-1.528
			c0-0.548-0.256-0.941-0.769-1.179c-0.274-0.119-0.629-0.244-1.063-0.375c-0.435-0.131-0.944-0.262-1.528-0.393
			c-1.489-0.357-2.705-0.882-3.646-1.573c-0.477-0.357-0.834-0.748-1.073-1.171c-0.238-0.423-0.357-0.908-0.357-1.457
			c0-1.263,0.554-2.296,1.662-3.101c1.108-0.804,2.52-1.207,4.236-1.207c0.583,0,1.12,0.018,1.608,0.054
			c0.489,0.036,0.989,0.101,1.501,0.196c1.001,0.167,1.888,0.37,2.663,0.608l-0.644,1.68c-0.191,0.536-0.37,1.09-0.536,1.662
			l-0.875-0.179v-0.947c-0.072-0.107-0.203-0.215-0.394-0.322c-0.19-0.107-0.489-0.232-0.894-0.375
			c-0.667-0.274-1.454-0.411-2.359-0.411c-0.703,0-1.254,0.137-1.653,0.411c-0.399,0.274-0.599,0.673-0.599,1.197
			c0,0.5,0.339,0.864,1.019,1.09l2.734,0.769c1.728,0.477,2.94,1.084,3.637,1.823C115.148,101.74,115.497,102.675,115.497,103.807z"
			/>
	</g>
</g>
</svg>
