<?xml version="1.0" encoding="UTF-8"?>
<svg id="Layer_2" data-name="Layer 2" xmlns="http://www.w3.org/2000/svg" viewBox="0 0 122 122">
  <defs>
    <style>
      .cls-1 {
        fill: #fff;
      }
    </style>
  </defs>
  <g id="Layer_1-2" data-name="Layer 1">
    <g id="INSTAGRAM">
      <path class="cls-1" d="m35.74.42c-6.49.31-10.92,1.35-14.8,2.86-4.01,1.56-7.41,3.66-10.79,7.05-3.39,3.4-5.46,6.8-7.02,10.82-1.5,3.88-2.52,8.32-2.81,14.81C.04,42.48-.02,44.55,0,61.12c.03,16.56.1,18.64.41,25.15.31,6.49,1.35,10.92,2.86,14.8,1.57,4.01,3.66,7.41,7.06,10.79,3.4,3.38,6.8,5.46,10.82,7.01,3.88,1.5,8.32,2.52,14.81,2.81,6.51.29,8.58.35,25.14.32,16.57-.03,18.65-.1,25.15-.41,6.49-.31,10.92-1.35,14.8-2.86,4.01-1.57,7.41-3.66,10.79-7.06,3.38-3.4,5.46-6.8,7.01-10.82,1.5-3.88,2.52-8.32,2.81-14.81.28-6.51.35-8.59.32-25.15-.03-16.56-.11-18.64-.41-25.14-.31-6.49-1.35-10.92-2.86-14.8-1.57-4.01-3.66-7.41-7.05-10.79-3.4-3.38-6.8-5.46-10.82-7.01-3.88-1.5-8.32-2.53-14.81-2.81C79.53.04,77.45-.02,60.88,0c-16.56.03-18.64.1-25.15.42m.71,110.27c-5.95-.26-9.18-1.25-11.33-2.08-2.85-1.1-4.88-2.43-7.02-4.55-2.14-2.13-3.46-4.16-4.58-7-.84-2.15-1.84-5.38-2.12-11.32-.3-6.43-.37-8.36-.4-24.65-.03-16.28.03-18.21.31-24.65.25-5.94,1.25-9.18,2.08-11.33,1.1-2.85,2.42-4.88,4.55-7.02,2.13-2.14,4.16-3.46,7.01-4.58,2.15-.84,5.38-1.84,11.32-2.12,6.43-.3,8.36-.37,24.64-.4,16.29-.03,18.22.03,24.65.31,5.94.26,9.18,1.24,11.32,2.08,2.85,1.1,4.89,2.42,7.02,4.55,2.14,2.13,3.46,4.16,4.58,7.01.84,2.14,1.84,5.37,2.12,11.32.31,6.43.38,8.36.41,24.65.03,16.29-.03,18.22-.31,24.65-.26,5.95-1.25,9.18-2.08,11.33-1.1,2.85-2.42,4.88-4.55,7.02-2.13,2.13-4.16,3.46-7.01,4.58-2.15.84-5.38,1.84-11.32,2.12-6.43.3-8.36.37-24.65.4-16.28.03-18.21-.03-24.65-.31M86.18,28.39c0,4.04,3.29,7.31,7.33,7.3,4.04,0,7.31-3.29,7.31-7.33,0-4.04-3.29-7.31-7.33-7.3-4.04,0-7.31,3.29-7.3,7.33M29.68,61.06c.03,17.3,14.08,31.29,31.38,31.26,17.3-.03,31.3-14.08,31.26-31.38-.03-17.29-14.09-31.29-31.39-31.26-17.3.03-31.29,14.09-31.26,31.38m10.99-.02c-.02-11.23,9.07-20.35,20.29-20.37,11.23-.02,20.35,9.06,20.37,20.29.02,11.23-9.07,20.35-20.3,20.37-11.23.02-20.35-9.06-20.37-20.29"/>
    </g>
  </g>
</svg>