<svg version="1.1" id="Layer_1" xmlns="http://www.w3.org/2000/svg" x="0" y="0" viewBox="0 0 200 200" xml:space="preserve"><style>.st0{fill-rule:evenodd;clip-rule:evenodd}.st0,.st1{fill:#fff}</style><path class="st0" d="M66.778 41.89c7.082 5.005 20.973 7.371 30.265 12.073-8.533-4.928-19.379-8.517-30.265-12.073z"/><path class="st0" d="M177.275 56.641c9.812 6.828 19.646 14.171 21.616 24.263.01 1.339.029 2.751-1.12 4.222-9.718 8.63-27.223 5.009-42.739.902-34.12-9.02-61.545-21.819-85.175-36.989C57.93 41.38 45.968 33.037 42.881 21.102c-.044-1.484.178-2.916 1.117-4.226 7.559-8.106 21.66-4.881 34.906-2.72 6.458 1.395 13.158 2.778 19.248 4.831 27.665 8.946 58.539 23.358 79.123 37.654zm-3.682 5.361c-20.986-13.466-50.622-27.699-81.454-37.369-13.448-4.218-29.658-7.325-40.561-3.942 39.488-.194 86.684 23.153 116.187 41.126-27.857-14.598-69.794-36.604-107.444-36.555 23.852 3.533 52.319 13.256 72.526 23.251-20.497-8.384-50.063-18.984-74.469-21.048 17.769 5.58 38.241 12.194 53.912 20.131-16.706-6.429-37.896-15.064-59.228-18.829C67.459 34.333 83.86 39.001 97.897 45.6 84.89 41.719 70.832 35.354 55.464 31.667c2.811 4.353 11.394 5.981 18.545 8.517 27.136 9.641 52.05 21.957 72.782 35.98 3.126 2.117 6.407 4.866 10.313 5.441-11.232-9.559-24.127-18.145-39.416-25.344 18.722 6.394 35.349 17.104 48.712 27.804 1.236-.746 4.062 1.241 5.303.497.954-1.746-2.473-3.797-4.385-5.68-13.355-13.187-33.467-25.111-54.895-33.506 29.309 8.46 52.943 23.32 70.396 39.866 3.55-.587 8.586.436 10.222-2.722 1.751-3.397-.928-7.628-2.415-9.683-12.025-16.653-41.499-31.367-65.613-40.864 18.626 8.589 35.205 18.379 48.58 30.029z"/><path class="st0" d="M74.989 147.61c-5.008 2.154-14.286-1.407-18.703-4.494 2.23 3.829 8.949 5.043 14.964 6.666-3.184 2.408-9.984.162-14.506-1.566 3.121 2.761 10.341 3.403 14.364 3.792-3.435 1.867-8.783.465-14.191-1.038 2.818 2.668 8.812 2.692 12.368 2.818-3.645 1.318-8.28.933-13.151.14 3.014 2.096 7.729 1.819 10.792 1.949-2.319 1.133-5.904.098-8.699.418-.846-.226-1.696-.447-2.54-.673-1.48-.578-.783.617.313.536 4.625 1.6 8.325 1.6 11.854 1.326-2.222 2.527-6.682 1.219-10.303 1.346 3.032 2.126 7.63 1.652 10.168.879-1.051 2.916-8.583 2.251-12.081-.485 1.758 3.676 10.198 5.642 13.528 3.579.076 3.661-7.232 3.484-10.493 1.446 1.919 3.977 8.589 3.312 12.243 2.181-1.191 2.543-5.276 4.316-7.494 3.163 1.56 2.699 6.664 1.121 8.625-.601.671 2.245-3.532 5.101-5.488 4.806 2.556 1.497 5.64 1.596 9.221 1.206-.408-5.482-1.69-9.666-4.202-14.411 2.064-2.802 3.512-7.07 5.075-10.732 3.965-1.623 6.784-3.193 8.69-7.203 4.447.975 8.451-1.114 12.441-2.583 2.027-.754 4.887-.585 6.552-.651 4.441-.187 5.087-3.051 8.361-4.451 3.567-1.532 7.815-2.029 10.441-3.57 4.446-2.619 7.08-8.306 12.733-8.838 2.442-5.032 7.527-5.509 10.624-9.399 9.643-.237 17.282-3.901 22.846-11.147 8.269-1.152 15.23-4.554 20.505-10.853-16.066 3.647-38.071-3.784-58.086-9.481 10.536 6.479 27.1 9.02 40.663 12.108-19.27-1.094-42.825-8.003-61.928-15.472 14.566 10.119 40.46 15.804 59.566 17.562-19.266 1.322-43.227-3.918-63.576-10.938-.726-.313-.971.173-.532.31 19.528 7.79 43.181 12.638 61.632 13.141-25.664 5.132-61.59-7.5-87.475-19.692-.944-.541-1.683-.226-.077.632 21.917 11.461 44.552 19.126 72.105 24.463-16.047-.978-37.089-6.291-53.161-12.698 13.014 8.333 35.975 13.039 52.178 14.701-19.015 1.874-45.321-4.09-67.807-12.048 19.523 9.849 45.605 15.065 64.914 14.45-23.897 5.403-56.378-4.675-80.735-16.349 16.939 13.1 43.248 19.868 68.467 21.699-2.963 2.709-7.644.975-11.458.581-17.741-1.802-38.39-7.376-54.717-15.371 15.267 11.436 41.246 17.782 61.874 19.079-17.596 2.298-43.269-5.31-60.034-14.069 14.151 11.105 36.757 17.034 55.539 17.399-12.269 1.96-29.943-2.002-44.226-7.173-5.202-1.88-10.104-4.32-14.541-6.56 11.205 9.283 30.036 14.627 47.062 16.964-14.109-.726-33.625-6.58-45.96-12.599 10.741 8.734 32.85 14.042 48.776 15.608-13.312 1.358-34.492-4.554-46.71-11.451 7.374 7.886 29.458 13.904 43.284 14.164-13.144 1.525-34.18-4.587-46.292-11.341 4.75 5.366 18.359 10.517 29.318 12.276-6.149.393-14.367-2.09-18.936-3.651 3.554 4.153 13.321 5.027 19.217 5.99-8.202.716-19.528-1.21-27.827-4.194-.457 1.353 3.133 2.499 4.62 3.031 5.214 1.847 13.329 2.677 18.086 3.425-8.259.968-18.377-1.264-28.787-3.994 6.361 4.493 18.061 5.733 25.47 6.28-8.836 1.622-20.029-.828-31.55-3.819 6.522 4.598 18.313 5.726 25.897 6.395-6.903 1.245-15.656-.687-24.558-2.88 5.457 3.497 14.753 4.458 20.817 5.054-6.151 2.389-17.112-1.73-23.049-5.192 3.575 4.126 12.731 6.5 19.726 7.482-4.504 2.621-15.593-1.682-20.084-4.408-.969 1.338 5.654 3.911 9.474 5.215 2.405.822 6.106 1.056 8.564 1.815z"/><path class="st0" d="M57.293 115.349c2.125 4.488 8.906 6.27 13.877 9.089-3.299-2.37-9.912-5.912-13.877-9.089zM41.849 20.564s-.789 6.331 7.92 15.039c0 0-4.936-1.252-6.892-5.476 0 0 1.216 5.212 6.23 9.565 0 0-8.439-4.877-8.97-9.565-.396-3.503 1.712-9.563 1.712-9.563z"/><path class="st1" d="M46.332 149.744c.574 19.748.764 25.501 25.5 28.568v2.873H5.683v-2.873c23.01-3.067 23.2-8.82 23.774-28.568v-67.49c-.574-19.749-.764-25.499-23.774-28.569v-2.876h60.971v2.876c-19.559 3.07-19.749 8.82-20.323 28.569l.001 67.49zm86.663-98.935v2.876c-21.859 2.3-36.429 20.898-50.619 35.662l-18.021 19.172 38.921 42.95c11.695 12.846 25.498 24.349 42.569 29.142l-.962 2.879c-33.361-2.686-38.73-3.644-56.753-23.392l-39.114-42.567 30.868-33.552c20.132-22.626 16.298-28.952 3.453-30.294v-2.876h49.658z"/><path d="M148.088 188.336l-3.572-.284c-33.668-2.711-40.617-3.884-59.767-24.869l-33.84-36.829v23.39c.552 18.982.624 21.44 21.487 24.027l4.013.497v11.495H1.107v-11.458l3.972-.53c10.092-1.345 15.062-3.117 17.152-6.113 2.219-3.178 2.392-9.094 2.652-18.051V82.254c-.26-8.826-.433-14.741-2.652-17.92-2.09-2.997-7.06-4.768-17.152-6.113l-3.972-.53V46.234H71.23v11.364l-3.866.608c-15.828 2.483-15.887 4.536-16.459 24.181v26.333l25.613-27.839c14.054-15.796 12.97-20.099 12.802-20.539-.216-.553-1.818-1.62-6.459-2.105l-4.099-.429V46.234h58.808v11.571l-4.098.431c-17.437 1.835-30.14 15.433-42.423 28.583a498.926 498.926 0 01-5.374 5.698l-15.093 16.059 36.083 39.818c13.734 15.086 26.577 23.924 40.414 27.813l4.623 1.298-3.614 10.831zm-92.859-70.801L91.5 157.001c12.856 14.091 18.304 17.911 34.924 20.117-8.88-5.307-17.57-12.732-26.533-22.57L60.83 111.449l-5.601 6.086zm-29.012 59.076h23.775c-7.069-5.018-7.84-13.15-8.237-26.734V82.254c.38-13.071.626-21.531 7.032-26.869H26.223c6.675 5.019 7.412 13.143 7.807 26.736l.005 67.623c-.4 13.679-1.138 21.835-7.818 26.867zM97.025 55.385c.316.506.597 1.055.826 1.65 1.157 2.98.922 6.423-.833 10.604 4.983-4.651 10.345-8.947 16.288-12.254H97.025z" fill="#1f4487"/><path class="st1" d="M46.332 149.744c.574 19.748.764 25.501 25.5 28.568v2.873H5.683v-2.873c23.01-3.067 23.2-8.82 23.774-28.568v-67.49c-.574-19.749-.764-25.499-23.774-28.569v-2.876h60.971v2.876c-19.559 3.07-19.749 8.82-20.323 28.569l.001 67.49zm86.663-98.935v2.876c-21.859 2.3-36.429 20.898-50.619 35.662l-18.021 19.172 38.921 42.95c11.695 12.846 25.498 24.349 42.569 29.142l-.962 2.879c-33.361-2.686-38.73-3.644-56.753-23.392l-39.114-42.567 30.868-33.552c20.132-22.626 16.298-28.952 3.453-30.294v-2.876h49.658z"/><path class="st1" d="M145.954 185.102l-1.194-.093c-33.285-2.68-39.334-3.695-57.756-23.884l-39.146-42.603v31.221c.569 19.499.701 24.144 24.163 27.055l1.337.164v5.749h-69.2v-5.736l1.326-.177c21.744-2.897 21.88-7.546 22.449-27.102V82.254c-.569-19.51-.705-24.158-22.449-27.057l-1.326-.177v-5.738H68.18v5.707l-1.286.202c-18.334 2.876-18.466 7.528-19.035 27.106v34.241l.035-.042 30.869-33.551c10.434-11.727 14.948-19.71 13.399-23.706-.84-2.173-3.781-3.493-8.981-4.037l-1.366-.143v-5.775h52.706v5.775l-1.364.143c-18.572 1.954-31.67 15.974-44.333 29.533-1.797 1.923-3.574 3.826-5.345 5.667L66.43 108.538l37.981 41.905c14.134 15.531 27.433 24.65 41.844 28.699l1.54.434-1.841 5.526zm-94.867-67.57l38.166 41.533c17.256 18.911 22.281 20.192 54.561 22.808l.08-.244c-14.395-4.41-27.702-13.708-41.745-29.135l-39.871-43.991 18.989-20.2a510.253 510.253 0 005.323-5.649c12.152-13.007 25.885-27.709 44.875-30.32H84.877c3.916.54 8.591 1.833 10.129 5.804 2.081 5.366-2.232 13.65-13.98 26.854l-29.939 32.54zM7.209 179.66l63.097-.007c-24.727-3.3-24.926-10.167-25.5-29.864V82.254c.569-19.641.773-26.517 20.323-29.865v-.056l-57.92.022c23 3.314 23.2 10.183 23.774 29.853v67.534c-.574 19.713-.774 26.581-23.774 29.896v.022z"/><path d="M46.332 149.744c.574 19.748.764 25.501 25.5 28.568v2.873H5.683v-2.873c23.01-3.067 23.2-8.82 23.774-28.568v-67.49c-.574-19.749-.764-25.499-23.774-28.569v-2.876h60.971v2.876c-19.559 3.07-19.749 8.82-20.323 28.569l.001 67.49zm86.663-98.935v2.876c-21.859 2.3-36.429 20.898-50.619 35.662l-18.021 19.172 38.921 42.95c11.695 12.846 25.498 24.349 42.569 29.142l-.962 2.879c-33.361-2.686-38.73-3.644-56.753-23.392l-39.114-42.567 30.868-33.552c20.132-22.626 16.298-28.952 3.453-30.294v-2.876h49.658z" fill="#ce202f"/></svg>