<?xml version="1.0" encoding="UTF-8"?>
<svg id="Layer_2" data-name="Layer 2" xmlns="http://www.w3.org/2000/svg" viewBox="0 0 238.74 239.52">
  <defs>
    <style>
      .cls-1 {
        fill: #fff;
      }
    </style>
  </defs>
  <g id="Layer_1-2" data-name="Layer 1">
    <g>
      <path class="cls-1" d="m223.41,178.05c0,10.02-.02,20.05.02,30.07,0,1.07-.25,1.19-1.23.94-10.91-2.86-21.81-5.76-32.76-8.46-4.38-1.08-8.87-1.73-13.32-2.51-.41-.07-1.01.14-1.31.43-16.38,15.9-34.67,29.26-54.34,40.78-.54.32-1.58.32-2.12,0-18.29-10.69-35.4-22.99-50.88-37.5-.51-.48-1.12-.89-1.48-1.46-2.37-3.76-5.74-2.14-8.82-1.59-14.25,2.52-28.28,5.93-42.08,10.29-1.1.35-1.33.17-1.33-1,.04-19.93.04-39.86,0-59.8,0-1.3.37-1.63,1.63-1.59,2.74.09,5.5,0,8.24.04.95.01,1.09-.24.65-1.05-5.01-9.36-9.14-19.11-12.53-29.16-4.96-14.71-8.48-29.77-9.91-45.22C.85,60.48.62,49.64,0,38.83c-.06-1.13.29-1.68,1.34-2.18,16.12-7.72,32.82-13.85,50.14-18.27,18.57-4.75,37.45-7.4,56.61-8.17,7.06-.28,14.11-.83,21.16-1.27.26-.02.61-.18.75-.38,1.77-2.51,4.42-3.56,7.25-3.48,5.48.15,10.94.76,16.42,1.03,1.15.06,2.41-.35,3.49-.83,5.1-2.25,10.2-4.5,15.82-5.13,4.32-.49,8.31.23,11.27,3.74,2.3,2.73,2.12,5.83.94,8.98-.7,1.87,1.02,5.25,2.89,5.73,17.16,4.43,33.71,10.53,49.65,18.26.48.23.98.99.99,1.51.14,12.28-.54,24.51-2.15,36.69-1.86,14.07-4.96,27.84-9.49,41.29-3.36,9.99-7.46,19.66-12.39,28.97-.58,1.09-.5,1.43.82,1.38,2.2-.09,4.41.02,6.62-.05,1.03-.03,1.3.32,1.3,1.33-.03,10.02-.02,20.05-.02,30.07Zm-83.31-115.83c0-.09-.05-.32-.04-.55.02-.33.07-.65.11-.97.14.29.36.57.42.88.24,1.37.57,2.74.6,4.12.1,4.5.06,4.38,4.53,4.59,3.98.19,7.59,1.37,10.1,4.81.42.58,1.09.98,1.65,1.47.3-.75.65-1.49.88-2.27.09-.32-.07-.72-.11-1.08-.21.2-.4.47-.65.56-.19.07-.56,0-.7-.16-3.38-3.78-7.77-5.31-12.66-5.75-.38-.03-.75-.2-1.12-.31.35-.22.67-.53,1.05-.64.75-.2,1.36-.26.74-1.33-3.45-6-4.46-12.36-2.67-19.11.08-.29.05-.61.08-.91-.22.25-.56.48-.63.77-.7,2.83-1.36,5.67-2.03,8.5-.07.28-.12.56-.18.83-.12-.26-.29-.51-.35-.78-1.29-5.47-1.7-10.99-1.18-16.59.03-.29-.03-.59-.05-.89-.19.25-.45.48-.54.76-.55,1.61-1.05,3.23-1.58,4.84-.09.28-.22.54-.33.81-.1-.3-.27-.6-.28-.91-.27-6.77,1.25-13.13,4.51-19.05.51-.93.32-1.46-.55-1.6-2.44-.39-4.9-.64-7.35-.94-.24-.03-.5,0-.74-.01.22-.13.43-.32.68-.39,1-.28,2.02-.51,3.03-.79.23-.06.44-.21.65-.32-.24-.06-.49-.18-.72-.16-3.06.28-5.72,1.5-8.12,3.38-.22.17-.5.27-.75.4.09-.24.15-.5.29-.71,2.75-4.08,6.35-7.14,10.88-9.09.79-.34,1.59-.67,2.39-1-.91.13-1.81.27-2.72.4-.2.03-.41.02-.62.03.18-.13.34-.29.54-.38,2.95-1.46,6.08-2.19,9.32-1.67,1.54.25,2.52-.18,3.45-1.2.17-.19.29-.42.43-.63-.23-.11-.44-.28-.68-.33-2.16-.45-4.33-.85-6.47-1.33-4.5-1.02-8.36.09-11.5,3.47-2,2.15-3.89,4.38-5.84,6.57-.18.21-.42.37-.64.55.03-.26,0-.54.1-.77.66-1.56,1.35-3.11,2.02-4.66.09-.2.13-.42.19-.63-.21-.04-.43-.14-.63-.12-6.62.8-12.98,2.44-18.85,5.71-.23.13-.39.39-.59.59.26,0,.53.03.78,0,1.96-.22,3.91-.46,5.87-.66.37-.04.76.04,1.14.07-.35.18-.68.41-1.04.53-9.3,3.12-17.41,7.96-23.27,16.07-.13.18-.32.31-.48.46-.12-.22-.35-.44-.36-.66-.03-2.41-.03-4.82-.04-7.23,0-.24-.05-.48-.08-.72-.21.06-.5.06-.62.2-1.07,1.27-2.11,2.57-3.16,3.86-.13.16-.27.33-.4.5-.07-.12-.17-.24-.22-.37-1.94-4.67.91-9.1,5.79-9,.81.02,1.62.05,2.43.08-.52-.8-1.05-1.59-1.57-2.39-.11-.18-.2-.37-.3-.56.22.04.47.02.64.13,1.65,1.04,3.29,2.1,4.93,3.15.18.12.36.25.53.37.03-.21.15-.46.07-.62-.88-1.79-1.54-3.76-2.74-5.3-2.11-2.7-5.55-2.87-8.26-.75-4.23,3.3-6.08,9.94-4.24,15.03,1.61,4.46,4.94,7.16,9.07,9.1.43.2.92.66,1.05,1.09,1.32,4.45-.3,8.34-4.33,10.61-.16.09-.3.21-.45.32.19.08.38.24.56.23,1.61-.09,3.25-.09,4.83-.36,1.15-.2,2.23-.79,3.34-1.21-.88,1.12-1.62,2.39-2.65,3.35-5.42,5.12-4.51,13.97,1.02,19.3.17.17.42.26.64.38.01-.22.07-.44.03-.65-.54-3.04.56-5.62,2.26-8.03.12-.17.33-.26.5-.39-.01.18-.04.36-.04.55,0,1.22-.34,2.57.07,3.64,1.14,2.98,2.54,5.86,3.96,8.72.22.45,1.11.88,1.63.81,11-1.47,21.91-1.03,32.75,1.38.39.09,1.3-.46,1.35-.8.8-5.09,1.49-10.19,2.2-15.29.04-.27.04-.54.06-.95Zm-95.84,84.45c2.13,0,4.26.02,6.38-.04.19,0,.61-.72.52-.89-3.35-6.27-7-12.4-10.08-18.8-10.74-22.26-16.68-45.75-17.53-70.5-.03-.95-.55-2.09-1.21-2.78-2.82-2.91-5.79-5.69-8.7-8.52-.18-.18-.3-.42-.45-.63.26.03.53.02.78.09,3.89,1.14,7.78,2.31,11.69,3.41.48.13,1.13-.02,1.6-.25,4.28-2.15,8.47-4.5,12.83-6.49,12.01-5.5,24.5-9.67,37.3-12.92,1.21-.31,1.65-.81,1.73-2.09.09-1.48.42-3,.94-4.4.46-1.24.08-1.32-.94-1.12-7.92,1.58-15.89,2.93-23.74,4.79-15.62,3.69-30.71,8.96-45.09,16.15-.55.28-1.11,1.19-1.12,1.82-.22,13.55,1.33,26.93,4.07,40.19,4.52,21.95,12.26,42.68,23.47,62.1.25.43.92.83,1.42.85,2.05.1,4.1.04,6.15.04ZM229.68,50.32c0-2.14.07-4.54-.05-6.93-.03-.6-.56-1.47-1.08-1.7-7.85-3.35-15.66-6.81-23.64-9.83-5.52-2.08-11.28-3.52-16.93-5.26-1.07-.33-1.49-.1-1.59,1.1-.14,1.57-.52,3.12-.87,4.67-.17.77-.51,1.5-.78,2.25-.29-.68-.55-1.38-.87-2.04-.12-.24-.39-.4-.59-.6-.18.83-.46,1.65-.5,2.48-.01.23.63.59,1.02.73,9.57,3.47,18.91,7.45,27.75,12.54.46.27,1.18.37,1.7.22,3.79-1.06,7.56-2.2,11.34-3.3.31-.09.66-.07.99-.1-.2.27-.36.57-.59.8-2.83,2.75-5.73,5.42-8.45,8.27-.72.75-1.23,2.02-1.27,3.07-.47,12.84-2.31,25.48-5.58,37.9-4.76,18.07-12.18,35.02-21.97,50.92-.6.98-.32,1.16.67,1.15,3.95-.02,7.9.07,11.84-.05.73-.02,1.78-.62,2.11-1.25,3.63-7.08,7.5-14.07,10.63-21.37,10.06-23.43,15.65-47.92,16.72-73.68Zm-119.18,71.48s0-.06,0-.09c10.75,0,21.49,0,32.24-.04.28,0,.79-.52.8-.81.18-5.95.28-11.9.44-17.85.03-1-.2-1.35-1.3-1.2-11.93,1.57-23.46,4.5-33.81,10.85-3.89,2.39-7.33,5.49-10.96,8.29-.21.16-.3.49-.44.74.17.03.34.09.52.09,4.17,0,8.35,0,12.52,0Zm-84.24,58.96h0c0,5.38.02,10.76-.02,16.14,0,.89.19,1.14,1.11.98,7.12-1.22,14.26-2.38,21.38-3.6.36-.06.91-.52.94-.83.12-1.54.15-3.09.08-4.64-.01-.29-.63-.83-.91-.8-4,.44-7.98.99-11.98,1.43-.33.04-1.02-.52-1.04-.85-.11-1.42-.12-2.87,0-4.29.04-.4.62-1.03,1.01-1.07,4.04-.44,8.08-.77,12.12-1.2.31-.03.78-.58.8-.91.09-1.43.12-2.87-.01-4.29-.03-.37-.73-1-1.1-.98-3.9.17-7.8.47-11.7.63-.38.02-1.08-.65-1.13-1.05-.14-1.38-.12-2.79,0-4.17.03-.37.59-.99.93-1.01,3.01-.16,6.03-.26,9.04-.3,4.16-.04,4.16-.01,4.15-4.1,0-.35.13-.79-.04-1.03-.32-.47-.8-1.19-1.22-1.2-7.08-.07-14.16-.07-21.25,0-.39,0-1.1.72-1.11,1.11-.07,5.34-.05,10.68-.05,16.02Zm107.88-4.3s.06,0,.1,0c0,3.98-.03,7.97.05,11.95,0,.39.66,1.06,1.06,1.09,2.46.2,4.94.3,7.41.32.32,0,.89-.61.94-.99.13-1.11.01-2.24.07-3.36.01-.28.3-.73.52-.77,3.17-.55,3.97.14,3.98,3.33,0,.43-.09.89.04,1.27.12.34.47.83.75.85,2.66.24,5.32.41,7.98.54.27.01.81-.4.82-.62.04-2.46.56-5.06-1.72-6.98-.21-.18-.31-.93-.19-1.02,2.35-1.67,1.61-4.16,1.87-6.44.52-4.5-.4-8.37-4.11-11.27-.06-.05-.09-.14-.15-.17-.47-.21-.94-.59-1.41-.59-5.61-.04-11.22-.05-16.83.03-.4,0-1.12.71-1.12,1.11-.08,3.91-.05,7.81-.05,11.72Zm67.93-12.87h0c-2.79.01-5.57,0-8.36.02-.4,0-.99.05-1.17.3-2.08,3.01-5.55,5.4-4.42,9.85.24.94.11,2.06.58,2.85,1.04,1.75,2.32,3.38,3.58,4.99.33.42.95.75,1.49.84,1.29.22,2.61.29,3.92.4q4.48.36,4.46,4.88c0,.27.1.62-.03.8-.29.37-.73.97-1.05.93-4-.44-7.98-1-11.97-1.45-.29-.03-.91.51-.93.8-.07,1.5-.05,3.02.07,4.52.03.35.56.88.93.94,4.77.8,9.6,1.27,14.3,2.37,2.84.67,4.48-.04,5.82-2.41.68-1.2,2.15-2.23,2.24-3.42.27-3.39.39-6.69-1.82-9.94-2.02-2.96-4.02-4.41-7.65-4.32-4.43.1-4.43-.18-4.43-4.64,0-.12.01-.23,0-.35-.17-1.11.22-1.46,1.4-1.39,3.82.21,7.65.33,11.48.38.38,0,1.07-.69,1.1-1.11.13-1.58.13-3.17,0-4.75-.03-.39-.69-1.02-1.08-1.03-2.82-.09-5.65-.05-8.47-.05Zm-110.71,30.7c-4.04.41-7.7.77-11.35,1.14-.21.02-.4.14-.6.21.13.18.22.4.38.53.99.74,2,1.45,3.01,2.17,11.13,7.83,22.69,14.88,35.39,19.9.7.28,1.69.29,2.38.01,13.72-5.44,26.13-13.19,38.05-21.77.23-.16.37-.43.55-.65-.24-.08-.48-.2-.73-.23-3.42-.35-6.84-.74-10.27-1-.7-.05-1.61.22-2.14.67-8.03,6.82-16.23,13.38-25.62,18.29-.55.29-1.51.28-2.06,0-9.33-4.98-17.63-11.42-25.57-18.35-.49-.43-1.11-.72-1.42-.91ZM31.86,76.29c1.09,5.06,2.13,9.94,3.22,14.8.03.15.73.33.98.21,7.3-3.35,14.59-6.73,21.87-10.11.23-.11.42-.29.63-.44-.24-.07-.47-.18-.71-.19-7.41-.33-14.77-.01-22.05,1.49-.24.05-.5.04-.75.05.18-.19.32-.42.54-.55,2.82-1.69,5.58-3.48,8.47-5.03,10.81-5.81,20.41-13.11,28.26-22.61.18-.22.26-.51.39-.77-.29.01-.6-.03-.88.04-3.31.78-6.61,1.57-9.92,2.35-.34.08-.7.03-1.05.04.24-.23.44-.53.73-.69,3.78-2.16,7.57-4.31,11.35-6.46.23-.13.44-.29.66-.43-.16-.03-.34-.13-.47-.08-5.57,1.93-11.36,3.42-16.65,5.95-6.21,2.96-11.99,6.82-17.95,10.3-.15.09-.27.24-.41.36.21.03.41.09.62.09,6.98-.22,13.75-1.43,20.21-4.18.24-.1.51-.14.76-.21-.16.23-.26.53-.47.68-2.88,2.08-5.59,4.48-8.7,6.14-5.75,3.07-11.73,5.7-17.61,8.53-.36.18-.68.45-1.07.72Zm75.27,100.12c-.04,4.17-.95,8.59,3.36,11.49.22.15.35.45.57.56.62.31,1.26.78,1.9.79,4.02.07,8.04.06,12.07-.01.61-.01,1.29-.37,1.8-.76,3.23-2.5,4.65-5.72,3.97-9.85-.21-1.24-.19-2.57,0-3.82.62-4.26-.51-7.81-4.02-10.43-.51-.38-1.18-.76-1.78-.77-4.1-.06-8.2-.05-12.3,0-.48,0-1.03.25-1.41.56-3.23,2.66-5,5.93-4.17,10.26.12.63.02,1.31.02,1.97Zm-26.99.92s-.08,0-.12,0c0,4.06.02,8.12-.02,12.18,0,.95.26,1.32,1.24,1.21,1.65-.17,3.31-.29,4.97-.37,3.43-.16,3.49-.14,3.39-3.57-.04-1.39.12-2.21,1.79-2.02.83.09,1.72-.23,2.54-.09,3.92.64,6.65-1.05,8.66-4.24.42-.66,1.1-1.33,1.13-2.02.13-2.89.09-5.8.02-8.7-.01-.56-.27-1.22-.63-1.65-1.08-1.31-2.23-2.57-3.43-3.77-.36-.36-.97-.67-1.46-.68-5.53-.05-11.06.02-16.59-.06-1.32-.02-1.53.49-1.52,1.61.04,4.06.02,8.12.02,12.18Zm-12.85-13.74v-.02c-1.08,0-2.2.17-3.25-.03-4.59-.85-7.78.86-10.03,4.9-1.36,2.45-1.57,5.35-.51,7.3,1.63,2.99,3.57,6.84,8.42,5.29.32-.1.69-.04,1.04-.06,4.31-.27,4.34-.27,4.18,4.07-.02.41-.64,1.1-1.05,1.15-2.68.35-5.38.56-8.08.83q-5.01.5-4.99,5.52s-.02.1,0,.11c.34.31.71.9,1.02.87,4.42-.47,8.83-1.37,13.25-1.46,3.75-.07,6.12-1.67,7.93-4.65.47-.78,1.32-1.49,1.41-2.31.37-3.08.29-6.11-2.61-8.2-.27-.2-.5-.49-.68-.78-.73-1.17-1.77-1.54-3.12-1.42-1.85.17-3.72.09-5.56.31-1.64.2-2.3-.22-1.97-1.96.16-.82-.06-1.71.08-2.54.07-.38.58-.96.92-.98,2.86-.13,5.72-.19,8.58-.21,4.49-.04,4.49-.03,4.49-4.45,0-.08.03-.18,0-.23-.33-.36-.65-1.01-1-1.02-2.82-.08-5.65-.05-8.47-.05Zm105.66,0c-3.64,0-7.27-.02-10.91.03-.32,0-.89.44-.91.71-.08,1.27-.1,2.56.04,3.82.04.39.62.99.99,1.02,1.61.14,3.25.04,4.86.2.39.04,1.02.7,1.03,1.09.1,6.69.09,13.38.19,20.08,0,.43.65,1.15,1.08,1.21,2.44.39,4.9.67,7.37.86.35.03,1.08-.59,1.08-.91.02-6.15-.02-12.3-.1-18.45-.05-3.74-.08-3.74,3.67-3.56q3.32.17,3.32-3.12c0-.66.12-1.35-.05-1.96-.11-.41-.64-.98-1-.99-3.56-.07-7.12-.04-10.68-.04Zm-30.17-136.26c.63,2.61,1.23,5.23,1.9,7.83.13.51.51.96.77,1.43.16-.45.33-.9.49-1.35.21-.62.39-1.25.62-1.87,1.74-4.72,3.96-9.18,7.47-12.83,2.89-3.02,6.9-3.4,10.75-4.05,1.64-.28,3.13-.88,3.54-2.7.4-1.79.36-3.58-1.13-4.95-2.89-2.65-6.05-2.65-9.53-1.13-5.8,2.51-10.91,5.8-14.17,11.42-.14.24-.18.55-.26.82.22-.14.45-.27.67-.42,1.01-.7,2.02-1.41,3.04-2.11.21-.14.47-.21.71-.32-.14.24-.24.52-.44.71-2.61,2.61-4,5.73-4.43,9.52Zm.09,68.49c0-1.04.1-2.1-.05-3.12-.06-.37-.78-.95-1.11-.9-1.37.22-2.7.67-4.05.98-10.2,2.37-19.85,6-28.45,12.15-4.97,3.55-9.22,7.74-12.41,12.95-.23.37-.32.83-.48,1.25.34-.2.69-.37,1-.6,3.16-2.34,6.17-4.92,9.51-6.98,9.88-6.09,20.81-9.29,32.18-11.13,3.85-.62,3.86-.56,3.87-4.61Zm-58.25-32.82c0-.7,0-1.39,0-2.09,0-.26-.05-.51-.07-.77-.26.12-.56.18-.77.36-1.02.89-2.09,1.73-3,2.72-6.02,6.63-8.89,14.06-5.67,22.97.11.29.36.53.55.79.1-.32.26-.64.29-.97.27-2.52.51-5.05.79-7.57.02-.19.24-.37.36-.55.02.21.05.41.06.62.17,2.14.3,4.29.55,6.42.03.22.8.61,1.07.5,2.58-1.03,5.14-2.14,7.68-3.26.29-.13.62-.47.66-.74.05-.39-.15-.81-.25-1.22.35.29.66.78,1.04.83.7.1,1.43-.06,2.14-.1-.12-.41-.16-.88-.38-1.22-3.28-5.09-5.13-10.62-5.06-16.72Zm55.7,23.14c0-.85-.05-1.71.01-2.55.08-1.09-.25-1.32-1.32-.99-6.91,2.13-13.78,4.37-20.01,8.12-7.91,4.77-14.88,10.51-19.02,19.05-.13.28-.14.62-.21.93.24-.17.52-.3.71-.51,9.89-10.44,22.35-16.16,36.06-19.5,3.73-.91,3.77-.74,3.77-4.55Zm17.92-24.39c-.14-4.26-1.3-7.7-4.58-10.15-.28-.21-.66-.29-1-.44.03.33.06.65.09.98.08.88.18,1.76.23,2.64.01.16-.14.33-.21.5-.08-.16-.18-.32-.25-.48-.61-1.32-1.07-2.74-1.85-3.95-1.1-1.71-3.49-1.91-4.92-.47-1.45,1.47-.74,3.07-.04,4.61q.95,2.09,2.31.4c.24-.29.53-.54.8-.8.17.36.38.72.5,1.1.83,2.57,1.69,5.03,4.99,5.38.87.09,1.67.76,2.5,1.15.4.19.81.34,1.21.52.09-.44.19-.88.21-.99Zm-88.27,74.07h0c0-1.7.07-3.41-.06-5.1-.03-.37-.79-.96-1.19-.94-.47.02-1.29.57-1.31.93-.13,2.04-.05,4.1-.07,6.15,0,.28-.11.56-.16.84-.17-.24-.39-.46-.52-.71-1.09-2.13-2.18-4.27-3.23-6.42-.72-1.48-2.02-.72-3.08-.75-.15,0-.46.99-.47,1.53-.04,3.17-.06,6.35.05,9.51.01.36.79.88,1.27.96.3.05,1.01-.58,1.03-.93.1-2.12.04-4.25.05-6.38,0-.29.07-.58.11-.88.17.23.37.44.49.69,1.14,2.23,2.11,4.58,3.5,6.65.45.67,1.96.68,3.01.83.11.02.52-1.01.55-1.56.08-1.47.03-2.94.03-4.41Zm10.09,6.31c3.66,0,5.93-2.49,5.93-6.49,0-3.73-2.38-6.18-6-6.18-3.81,0-6.05,2.38-6,6.36.05,4.06,2.21,6.31,6.07,6.3Zm100.38-68.79c-.16-.04-.32-.09-.48-.13-.03-.7-.03-1.39-.11-2.08-.04-.35-.23-.68-.35-1.02-.1.32-.23.63-.31.95-.45,1.88-.87,3.76-1.33,5.63-.05.19-.23.36-.35.53-.1-.19-.24-.38-.3-.58-.38-1.33-.73-2.68-1.12-4.01-.06-.22-.28-.39-.42-.58-.11.19-.27.37-.31.58-1.34,7.2-4.38,13.65-8.46,19.67-.23.34-.06.95-.08,1.43.48-.17,1.21-.2,1.41-.54,2.56-4.26,5.05-8.57,7.55-12.87.11-.19.25-.36.37-.54.1.19.26.37.28.56.15,1.42.27,2.84.4,4.26.03.32.05.65.07.97.22-.29.56-.54.64-.86.99-3.79,1.94-7.59,2.89-11.38Zm-90.14,62.48c0,1.51.02,3.01,0,4.52-.02.9-.1,1.59,1.24,1.59,1.33,0,1.44-.6,1.36-1.61-.04-.54-.07-1.09.01-1.62.1-.6.33-1.18.51-1.77.63.5,1.45.88,1.86,1.52.55.85.58,2.11,1.24,2.81.48.52,1.61.44,2.46.58.05,0,.31-.49.24-.66-.62-1.58-1.31-3.12-1.92-4.71-.1-.26.09-.65.2-.97.39-1.13,1.18-2.28,1.08-3.36-.07-.78-1.21-1.89-2.05-2.09-1.7-.4-3.51-.32-5.28-.31-.32,0-.89.61-.91.97-.1,1.69-.04,3.4-.04,5.1Zm25.11-.13h0c0,1.55.04,3.1-.01,4.64-.04,1.04.1,1.6,1.41,1.59,1.4,0,1.22-.8,1.2-1.65-.02-.81.05-1.63-.02-2.44-.08-.97.26-1.24,1.23-1.22,3.46.05,3.46.02,3.47,3.48,0,.23-.09.55.02.68.36.41.84,1.08,1.19,1.03.48-.06,1.25-.68,1.26-1.08.1-3.13.02-6.26.07-9.4.01-1.05-.01-1.68-1.41-1.68-1.51,0-1.09.91-1.12,1.67-.03.81.05,1.63-.04,2.43-.03.29-.39.74-.65.77-3.93.49-3.97.45-4.01-3.38,0-.19.07-.5-.02-.56-.51-.32-1.04-.72-1.61-.81-.26-.04-.89.51-.91.82-.09,1.7-.04,3.4-.04,5.1ZM184.2,22.73q.05-4.47-3.89-6.45c-.48-.24-.94-.54-1.45-.73-.5-.19-1.32-.55-1.52-.35-.37.38-.6,1.12-.54,1.66.19,1.57.39,3.17.88,4.65,1.56,4.73,1.83,9.44.23,14.21-.23.68-.39,1.38-.59,2.07.46-.65,1.01-1.26,1.37-1.96,2.37-4.51,2.71-9.36,2.33-14.32-.02-.31.06-.63.09-.95.19.23.44.43.56.69.65,1.35,1.27,2.72,1.91,4.08.09.19.26.35.4.53.07-.2.2-.39.2-.59.02-.85,0-1.7,0-2.55Zm-31.54,119.49c2.14.06,1.77-.89,1.39-1.87-1.28-3.26-2.53-6.54-3.86-9.78-.16-.38-.76-.81-1.14-.81-.75.01-1.98.11-2.17.55-1.55,3.52-2.91,7.13-4.29,10.73-.08.22.13.79.21.79,1.01.04,2.27.5,2.59-1.06.28-1.37,1.08-1.79,2.38-1.59.45.07.93.07,1.39,0,1.18-.17,1.84.2,2.16,1.45.16.61.88,1.06,1.35,1.59Zm51.3-52.01c-.08-.16-.15-.47-.34-.68-3.14-3.35-6.28-6.69-9.45-10.02-.35-.37-.85-.6-1.28-.89.31.45.59.92.93,1.35.33.43.74.8,1.05,1.23,2.52,3.47,5.02,6.94,7.52,10.42.08.12.11.28.17.42-.21.01-.43.08-.62.02-2.01-.55-4.01-1.13-6.02-1.68-.27-.07-.57-.02-.85-.02.05.25.04.55.16.75,1.72,2.78,3.46,5.56,5.24,8.31.09.13.86.08.97-.1,1.25-1.95-.55-2.96-1.38-4.27-.26-.42-.54-.83-.81-1.25.45.13.89.35,1.35.38.78.06,2.11.26,2.26-.05.56-1.15.74-2.5,1.09-3.93Zm-72.26,45.52c0,1.74-.05,3.48.04,5.21.02.33.56.88.88.9,1.77.09,3.56.1,5.33,0,.4-.02.77-.61,1.16-.94-.37-.33-.72-.88-1.13-.94-.94-.14-1.93-.01-2.89-.07-.25-.02-.66-.28-.71-.5-.51-2.21-.04-2.77,2.21-2.75.39,0,.82.11,1.14-.03.35-.15.83-.53.84-.83.11-2.21-1.64-1.12-2.47-1.13-1.42-.02-2.1-.39-1.69-1.81.13-.45.71-.99,1.17-1.09.81-.18,1.7.04,2.53-.1.33-.06.8-.63.79-.95-.01-.33-.52-.91-.84-.92-1.81-.1-3.63-.1-5.44-.02-.32.01-.86.56-.88.88-.09,1.7-.04,3.4-.04,5.1Zm28.65,6.41c.84,0,1.11.01,1.38,0,1.79-.11,3.29-.75,3.82-2.6.59-2.05-.12-3.38-2.17-4.42-.58-.3-1.3-.4-1.79-.79-.47-.38-1.11-1.17-.98-1.51.2-.53.95-.98,1.56-1.18.5-.16,1.13.12,1.71.15.31.01.9-.11.9-.14-.04-.61.07-1.51-.28-1.76-1.65-1.2-5.23-.32-6.25,1.39-1.43,2.4-.32,4.42,2.96,5.75.71.29,1.18,1.18,1.76,1.8-.83.39-1.64.85-2.5,1.14-.35.12-.81-.2-1.23-.22-.38-.02-.77.1-1.16.15.19.64.18,1.55.6,1.86.56.41,1.46.34,1.67.37Zm-13.2-81.03c.16,1.18.28,1.98.37,2.78.12,1.04.4,1.58,1.73,1.46,2.42-.21,4.54.78,6.3,2.43,1.9,1.78,1.96,1.82,3.83-.14.58-.61,1.07-1.32,1.53-2.03.23-.36.3-.81.44-1.22-.39.11-.77.23-1.16.33-.84.21-1.31,1.51-2.61.05-1.18-1.33-3.33-1.83-5.08-2.63-.51-.23-1.38-.55-1.63-.32-1.45,1.32-.91-.43-1.04-.71-.58-1.2-1.03-2.47-1.52-3.71-.42,1.34-.84,2.68-1.16,3.72Zm25.23,75.6c0,1.35-.08,2.72.05,4.06.04.4.62.99,1.04,1.07.77.15,1.73.33,1.66-1.12-.1-2.12.1-4.26-.08-6.38-.16-1.98.21-3.1,2.5-2.69.23.04.81-.56.79-.83-.03-.39-.46-1.05-.73-1.06-2.63-.08-5.26-.07-7.89,0-.28,0-.74.59-.75.92-.01.33.5,1.01.66.98,2.97-.65,2.93,1.19,2.75,3.21-.05.61,0,1.24,0,1.86Zm8.96-88.54c.19-.04.39-.07.58-.11-.15-1.54-.29-3.08-.46-4.61-.03-.25-.14-.48-.21-.72-.09.27-.23.53-.26.8-.14,1.58-.14,3.18-.39,4.73-.33,2.06-.34,3.98.21,6.1,1.08,4.09,1.61,8.33,2.34,12.51.04.24-.06.51-.1.77-.18-.21-.38-.41-.54-.64-1.12-1.57-2.23-3.15-3.35-4.72-.1-.15-.3-.23-.45-.34.04.16.06.34.13.48,1.73,3.36,3.46,6.72,5.2,10.07.09.18.28.3.43.45.07-.21.2-.42.19-.62-.16-3.04-.12-6.12-.57-9.12-.76-5.04-1.83-10.03-2.77-15.04Zm-75.91,88.56h0c0,1.39-.08,2.79.05,4.17.04.37.77.96,1.14.93.51-.05,1.38-.56,1.4-.92.13-2.27.23-4.57.02-6.83-.18-2,.41-2.73,2.41-2.44.31.05.73-.6,1.1-.93-.37-.33-.73-.94-1.12-.96-2.31-.09-4.64-.11-6.95,0-.53.03-1.04.64-1.56.99.54.31,1.1.93,1.61.89,1.48-.12,2.12.27,1.92,1.86-.14,1.06-.03,2.16-.03,3.24Zm14.76,10.26c-.51.53-.96.83-1.14,1.24-1.2,2.67-2.37,5.36-3.49,8.07-.19.46-.06,1.05-.08,1.58.55-.35,1.17-.62,1.62-1.06.41-.4.59-1.39.95-1.43,1.45-.17,2.95-.22,4.37.03.45.08.62,1.33,1.1,1.88.31.35.96.39,1.46.57.02-.4.18-.86.05-1.2-1.16-2.86-2.36-5.7-3.61-8.52-.18-.4-.68-.66-1.22-1.17Zm-41.05-111.55c-.25.04-.37.03-.47.07-5.02,1.96-10.04,3.91-15.06,5.89-.25.1-.42.39-.63.59.31.1.62.24.94.3,2.69.48,5.39.95,8.08,1.43.51.09,1.02.23,1.52.35-.31-.45-.62-.9-.94-1.34-.04-.06-.11-.11-.16-.16-.6-.55-1.21-1.1-1.81-1.65.74-.56,1.48-1.11,2.22-1.66.09-.07.2-.11.3-.17,1.94-1.03,3.89-2.06,5.82-3.1.18-.1.31-.3.47-.46-.13-.04-.26-.07-.28-.07Zm58.32,117.13q0,5.49,4.88,5.32c.08,0,.18.03.23,0,.28-.23.55-.47.82-.71-.28-.26-.54-.72-.85-.76-.84-.1-1.7.03-2.54-.05-.32-.03-.81-.33-.87-.59-.46-2.13-.09-2.55,2.06-2.53.35,0,.75.11,1.03-.03.29-.14.66-.52.64-.78-.01-.27-.39-.66-.69-.75-.42-.13-.92-.08-1.38-.02-1.24.17-1.73-.17-1.75-1.58-.01-1.6.97-1.11,1.74-1.16.58-.04,1.18.09,1.73-.04.33-.07.58-.49.86-.75-.28-.26-.54-.72-.84-.74-1.39-.08-2.78-.1-4.16,0-.33.02-.86.56-.88.89-.1,1.42-.04,2.85-.04,4.28Zm-36.3-5.43c-1.59.16-3.07.43-3.52,2.18-.44,1.7.42,2.81,1.87,3.56.44.23,1.03.33,1.32.68.44.53,1.06,1.35.91,1.81-.18.53-1.08.9-1.75,1.14-.37.13-.89-.2-1.35-.21-.29,0-.84.25-.83.33.05.39.15.95.42,1.11.44.25,1.04.33,1.57.32,1.71-.02,3.32-.42,3.83-2.32.5-1.86-.45-3.1-2.07-3.91-.48-.24-1.05-.41-1.42-.77-.37-.36-.76-.95-.71-1.39.04-.35.68-.81,1.12-.9.57-.12,1.21.13,1.81.11.25,0,.67-.26.7-.45.05-.3-.08-.82-.29-.92-.51-.23-1.11-.28-1.61-.39ZM164.39,18.36c-.41.92-.86,1.89-1.26,2.88-.09.22.02.51.03.77.25-.05.49-.13.74-.13.87,0,1.79-.16,2.59.08,1.2.36,2.4.89,3.45,1.58.84.55,1.46,1.45,2.18,2.19.14.15.29.29.43.43.56-.8,1.23-1.56,1.63-2.44.14-.3-.3-1.16-.68-1.34-2.67-1.29-5.4-2.46-8.11-3.67-.14-.06-.29-.1-1-.34Zm6.91,23.43c-.48.15-.76.15-.9.29-1.4,1.31-2.99,2.48-4.12,4-2.64,3.54-3.72,7.75-4.64,12-.04.2.06.42.09.63.15-.19.32-.37.44-.58,2.88-5.19,5.76-10.37,8.64-15.56.09-.17.21-.32.49-.77Zm-40.03,111.63h-.01c0-.46.03-.93,0-1.39-.13-1.87-.33-3.76,2.6-3.15.15.03.62-.56.59-.82-.04-.27-.49-.68-.78-.69-2.17-.06-4.33-.06-6.5,0-.26,0-.7.47-.71.74,0,.26.38.66.68.76.38.14.85.09,1.26.03.94-.12,1.29.18,1.25,1.2-.08,2.2-.06,4.41.02,6.62.01.4.52.79.8,1.18.26-.41.71-.8.76-1.23.11-1.07.04-2.16.04-3.25Zm-20.11-.12c0-.23,0-.46,0-.7.08-1.82-.9-4.39,2.67-3.74.11.02.51-.62.44-.83-.1-.29-.53-.64-.82-.65-2.13-.06-4.26-.05-6.38,0-.28,0-.68.31-.78.58-.09.23.11.81.28.86.51.14,1.08.16,1.61.1.99-.11,1.36.19,1.32,1.26-.09,2.28-.06,4.57.01,6.85,0,.3.56.59.86.88.26-.29.73-.57.75-.88.09-1.23.04-2.47.04-3.71Zm75.52-98.88c0,.5-.11.85.02,1.06.82,1.38,1.56,2.84,2.56,4.07,2.78,3.39,5.67,6.69,8.53,10.02.11.13.26.22.39.33-.05-.25-.06-.52-.16-.74-2.61-5.39-6.25-10.01-10.58-14.12-.16-.16-.35-.28-.76-.61Zm-31.89-28.1c.11.03.21.06.32.09,0,.31-.03.62,0,.92.05.39.15.78.23,1.17.22-.34.44-.68.66-1.01.95-1.44,1.92-2.86,2.82-4.33.28-.46.64-1.24.45-1.55-.33-.53-1.03-1.01-1.65-1.13-.42-.08-1.25.4-1.39.81-.59,1.64-.98,3.35-1.44,5.03Zm21.94,2.24c-1.04-.56-1.73-1.21-2.41-1.2-.43,0-1.17.99-1.2,1.56-.11,1.82.04,3.65.11,5.48,0,.16.09.32.14.48.15-.11.36-.19.43-.34.91-1.83,1.8-3.67,2.93-5.99ZM37.93,99.47c-.08.36-.26.7-.21,1,.07.49.33.95.43,1.44.2.97.54,1.33,1.54.71,1.01-.63,2.14-1.06,3.21-1.6.19-.1.33-.29.5-.44-.19-.1-.37-.25-.56-.29-1.48-.26-2.97-.5-4.91-.82ZM171.83,8.08c2.09.05,3.87-2.06,3.57-3.45-.02-.09-.45-.2-.49-.15-1.68,2.21-3.83,1.9-6.07,1.19-.19-.06-.42,0-.64,0,.07.12.12.3.23.37,1.29.79,2.59,1.56,3.39,2.04Zm12.54.31c-.13-2.64-1.21-4.17-2.85-5.37-.12-.09-.32-.08-.48-.11.03.14.01.3.08.41,1.69,2.62,2.32,5.44,1.68,8.52-.03.15.07.33.11.5.13-.12.35-.21.39-.35.42-1.36.81-2.72,1.07-3.59Zm-43.29,8.04c1.57.71,2.2-.55,2.97-1.53.12-.16.16-.38.24-.57-.21-.04-.45-.16-.64-.1-1.99.64-3.97,1.3-5.94,1.98-.21.07-.34.36-.51.54.24.03.49.1.73.08,1.03-.11,2.06-.26,3.15-.4Z"/>
      <path class="cls-1" d="m108.94,62.86c.45-2.5.9-5,1.34-7.5.05-.27.03-.55.05-.82-.2.21-.47.39-.6.64-.68,1.34-1.31,2.71-1.97,4.06-.11.21-.28.4-.42.59-.05-.21-.14-.42-.14-.64.12-7.74,2.61-14.78,6.37-21.43.09-.16.25-.27.38-.41-.02.21,0,.42-.06.63-.88,3.39-1.77,6.79-2.64,10.18-.08.31,0,.66,0,1,.22-.23.46-.45.66-.7,1.15-1.5,2.28-3.01,3.43-4.51.1-.13.29-.19.45-.29-.04.17-.07.35-.13.52-.83,2.24-1.69,4.47-2.49,6.71-.13.37-.07.8-.1,1.2.21-.29.44-.57.64-.87,1-1.47,1.99-2.94,3-4.4.1-.14.3-.2.46-.3-.01.18,0,.37-.05.54-2.84,9.37-2.71,18.74-.07,28.12.06.21.05.44.07.65-.16-.15-.36-.29-.47-.47-2.63-4.13-4.36-8.6-5.02-13.46-.05-.35-.19-.68-.29-1.01-.15.34-.37.66-.45,1.02-.36,1.54-.67,3.09-1.01,4.64-.05.21-.15.41-.23.61-.07-.19-.19-.37-.21-.56-.11-1.23-.21-2.46-.31-3.7-.06-.01-.13-.03-.19-.04Z"/>
      <path class="cls-1" d="m148.26,174.39c0,1.39.05,2.78-.04,4.17-.02.29-.6.81-.9.79-3.59-.26-3.58-.28-3.6-3.97,0-1.78-.12-3.55-.04-5.33.02-.37.66-1.04.98-1.02,4.22.24,3.4-.82,3.59,3.39.03.66,0,1.31,0,1.97Z"/>
      <path class="cls-1" d="m121.26,176.57c0,2.12.05,4.25-.05,6.37-.02.37-.71,1.01-1.08,1-3.48-.02-3.48-.06-3.48-3.57s-.04-6.95.04-10.42c0-.37.68-1.04,1.06-1.05,3.51-.11,3.51-.08,3.51,3.39,0,1.43,0,2.86,0,4.29Z"/>
      <path class="cls-1" d="m89.65,174.21c0-.73-.03-1.47,0-2.2.04-.94-.1-2.6.23-2.7,1.2-.38,2.57-.28,3.87-.26.17,0,.49.54.49.83,0,2.82-.02,5.64-.11,8.45-.01.32-.51.85-.84.9-3.64.61-3.65.59-3.65-3.05,0-.66,0-1.31,0-1.97Z"/>
      <path class="cls-1" d="m83.19,135.86c-.03,3.13-1.88,4.93-4.26,4-1.89-.73-2.28-2.48-2.23-4.31.04-1.68.61-3.19,2.3-3.8,2.37-.85,4.23,1.02,4.19,4.1Z"/>
      <path class="cls-1" d="m92.33,133.51c.6-.89.93-1.76,1.24-1.75,1.05.04,2.55-.03,2.4,1.54-.05.55-1.24,1.15-2.02,1.41-.32.1-.92-.65-1.62-1.2Z"/>
      <path class="cls-1" d="m148.25,137.29c-.49-.3-1.27-.66-1.23-.76.39-1.22.9-2.39,1.39-3.58.46,1.2.95,2.4,1.32,3.62.02.08-.89.44-1.47.72Z"/>
      <path class="cls-1" d="m120.09,154.2c-.56-.27-1.56-.7-1.54-.75.48-1.32,1.07-2.6,1.64-3.89.58,1.32,1.17,2.64,1.75,3.96-.57.21-1.14.42-1.84.69Z"/>
    </g>
  </g>
</svg>