<?xml version="1.0" encoding="UTF-8"?>
<svg id="Layer_2" data-name="Layer 2" xmlns="http://www.w3.org/2000/svg" viewBox="0 0 150.14 122">
  <defs>
    <style>
      .cls-1 {
        fill: #fff;
      }
    </style>
  </defs>
  <g id="Layer_1-2" data-name="Layer 1">
    <path id="white_background" data-name="white background" class="cls-1" d="m134.77,30.37c.09,1.32.09,2.65.09,3.98,0,40.7-30.99,87.65-87.65,87.65v-.02c-16.74.02-33.13-4.77-47.22-13.81,2.43.29,4.88.44,7.33.45,13.87.01,27.34-4.64,38.26-13.21-13.18-.25-24.74-8.84-28.78-21.39,4.62.89,9.38.71,13.91-.53-14.37-2.9-24.71-15.53-24.71-30.19v-.39c4.28,2.38,9.08,3.71,13.98,3.85C6.45,37.7,2.28,19.7,10.45,5.62c15.64,19.24,38.71,30.94,63.48,32.18-2.48-10.7.91-21.91,8.91-29.43,12.41-11.66,31.92-11.06,43.58,1.34,6.9-1.36,13.51-3.89,19.56-7.48-2.3,7.13-7.11,13.19-13.54,17.04,6.11-.72,12.07-2.35,17.69-4.85-4.14,6.2-9.34,11.6-15.37,15.96Z"/>
  </g>
</svg>