<?xml version="1.0" encoding="utf-8"?>
<!-- Generator: Adobe Illustrator 27.3.1, SVG Export Plug-In . SVG Version: 6.00 Build 0)  -->
<svg version="1.1" id="Layer_2_00000096041047009463188650000012174153954414890150_"
	 xmlns="http://www.w3.org/2000/svg" xmlns:xlink="http://www.w3.org/1999/xlink" x="0px" y="0px" viewBox="0 0 270.4 324"
	 style="enable-background:new 0 0 270.4 324;" xml:space="preserve">
<style type="text/css">
	.st0{enable-background:new    ;}
	.st1{fill:#FECD36;}
	.st2{fill:#FFFFFF;}
</style>
<g id="LEFT_SIDE">
	<g>
		<g class="st0">
			<path class="st1" d="M86.7,201.7c-0.2,2.3-0.7,4.4-1.6,6.5c-0.9,2-2,4-3.3,5.9c-1.3,1.9-2.7,3.7-4.3,5.4
				c-1.5,1.7-3.1,3.2-4.5,4.5c0.5,2.1,0.5,3.7,0.1,4.8c-0.4,1.1-0.5,2.6-0.4,4.8c-2.4,6.5-6.1,10.9-11.1,13.1c-5,2.2-9.6,1.7-14-1.3
				c-1.8-1.3-3.3-3-4.5-5c-1.2-2-2.9-3.3-5-3.8c0.5-2.8,0.2-5.5-0.7-8.3c-1-2.8-2-4.2-3.2-4.4c-0.5-3.4-1.2-7.1-2.2-11
				s-1.9-7.9-2.7-11.8c-0.8-4-1.5-7.9-2.1-11.7c-0.6-3.8-0.8-7.4-0.6-10.6c0.2-1.6-0.1-3.1-0.9-4.4c-0.7-1.3-1.3-2.8-1.6-4.6
				c-0.7-3.7-0.9-7.7-0.6-11.8s0.4-8.1,0.4-11.8c0-3.6-0.2-7.4-0.6-11.6c-0.4-4.2-0.8-8.1-1.1-12c-0.3-3.8-0.5-7.3-0.5-10.5
				s0.4-5.7,1.2-7.4c1-2,2.3-3.5,4-4.8s3.3-2.6,4.8-4c3.6,0.3,6.4,1.8,8.5,4.4c2.1,2.6,2.9,5,2.4,7.3c3.4,2.1,6.1,4.8,8.2,8.2
				c2,3.3,3.7,7.1,4.9,11.2s2.1,8.5,2.6,13.2s0.9,9.2,1.2,13.7c0.3,4.5,0.6,8.8,1,12.8c0.3,4.1,1,7.6,2,10.5
				c6-8.6,11.1-16.3,15.1-23.1c4.1-6.8,8.2-13.2,12.5-19.4c4.2-6.2,8.9-12.5,14.2-18.8c5.2-6.3,12-13.5,20.3-21.5c1.6,0.2,3,0.5,4,1
				c1.1,0.5,2,0.9,2.8,1.2c0.8,0.3,1.8,0.6,2.9,0.9c1.1,0.2,2.7,0.2,4.6-0.1c0.6,1.6,1.1,2.8,1.5,3.5c0.3,0.7,0.6,1.5,0.9,2.2
				s0.6,1.7,1,2.8c0.4,1.1,1.1,2.8,2.1,4.9c0.5,0.5,0.6,1.1,0.5,2c-0.2,0.8-0.3,1.6-0.4,2.3c-0.1,0.7-0.1,1.3-0.1,1.6
				c0,0.3,0.4,0.3,1.2,0c-0.5,2.3-1.3,4.4-2.6,6.2c-1.2,1.9-1.8,4.1-1.6,6.7c-3.7,4.9-7.9,9.9-12.3,15.1c-4.5,5.2-9,10.6-13.4,16.1
				c-4.5,5.5-8.8,11.4-12.8,17.5c-4.1,6.1-7.6,12.5-10.5,19.2c-0.8,0-1.4,0.2-1.8,0.7c-0.4,0.5-0.8,1-1.1,1.6
				c-0.3,0.6-0.7,1.1-1.1,1.6C87.8,201.4,87.3,201.7,86.7,201.7z"/>
			<path class="st1" d="M130.6,134.8c1.1-3.4,3-6.3,5.5-8.8c2.5-2.4,5.3-4.5,8.3-6.2c3-1.7,6.1-3.1,9.4-4.3c3.3-1.1,6.3-2.1,9.3-2.9
				c6.5-2.8,13.5-5.4,20.9-7.9c7.4-2.5,15-4.8,22.7-6.7c7.7-2,15.7-3.2,23.8-3.8c8.1-0.6,16.7,0.5,25.6,3.1c0.5,1.6,1.2,3.2,2.2,4.6
				s2,2.9,3.1,4.4c1.1,1.5,2,2.9,2.8,4.3c0.8,1.4,1.3,2.8,1.5,4.3c1.6,1.5,2.9,3.1,3.9,4.8s1.1,3.9,0.5,6.7
				c-1.6,1.3-3.2,2.5-4.8,3.5c-1.5,1.1-3.2,2-5,2.8c-6-1.5-12.1-2-18.3-1.5c-6.2,0.5-11.7,0.9-16.6,1.2c-1.5-1.5-3.2-2.2-5.2-2.2
				c-2,0-4.2,0.3-6.3,1c-2.2,0.7-4.4,1.3-6.6,2c-2.2,0.7-4.3,0.8-6.2,0.5c-1.6,1.3-3.6,2.2-6,2.6c-2.4,0.4-4.9,0.8-7.7,1.1
				c-0.2,0.8,0,1.3,0.5,1.6s0.6,0.8,0.2,1.6c1,1.1,2.2,2,3.8,2.4c1.5,0.5,3.2,1,4.9,1.5s3.2,1.1,4.5,1.8c1.3,0.7,2.2,1.9,2.7,3.5
				c2.4,0,4.6,0.6,6.3,1.7c1.8,1.1,3.3,2.5,4.4,4.2c1.1,1.6,2,3.4,2.6,5.2c0.6,1.9,0.9,3.5,0.9,5c0.5,1.3,1.1,1.9,1.7,1.7
				c0.6-0.2,1.4,0.2,2.2,1c0.5,2.1,1.7,4.3,3.7,6.5s3.5,4.6,4.6,7.2c0.3,4.1,0.6,7.7,0.7,10.9c0.2,3.2-0.4,6.4-1.7,9.6
				c-2.4,6-5.8,11.4-10.1,16.1c-4.3,4.7-9.2,8.9-14.6,12.6c-5.5,3.7-11.3,6.8-17.5,9.4c-6.2,2.6-12.2,4.8-18.1,6.6
				c-0.7-0.2-1.3-0.2-2,0c-0.7,0.2-0.8-0.2-0.5-1.2c-1.3,1.1-2.7,1.9-4.3,2.2c-1.5,0.3-3.2,0.4-5,0.4c-1.8-0.1-3.6-0.2-5.5-0.4
				c-1.9-0.2-3.6-0.1-5.2,0.2c-1.1-1.1-2.2-2.2-3.1-3.3c-0.9-1.1-1.6-2.4-2.1-4c-0.8,0-1.2-0.4-1.1-1.2c0.1-0.8-0.2-1.2-0.9-1.2
				c1-1.6,1.4-2.6,1.3-2.8c-0.1-0.2-0.3-0.4-0.7-0.6c-0.4-0.2-0.8-0.4-1.1-0.6c-0.3-0.2-0.4-0.6-0.2-1.1c0.6-1.3,0.9-2.8,0.7-4.5
				c-0.2-1.7-0.3-3.5-0.5-5.2c-0.2-1.8,0-3.5,0.4-5.1c0.4-1.6,1.6-2.9,3.5-3.9c5.5,0.7,10.8,0.5,15.7-0.6c5-1.1,9.6-2.6,14-4.5
				s8.6-4.1,12.6-6.3c4-2.3,7.9-4.3,11.8-6.1c0.5-1.5,1.2-2.7,2.1-3.7c0.9-1,1.8-1.9,2.8-2.7c1-0.8,1.9-1.7,2.7-2.7
				c0.8-1,1.4-2.2,1.7-3.7c0.2-1.1-0.1-1.8-0.9-2.1s-1.1-0.9-1.1-1.8l-2.7-0.7c-3.1-1.8-6.6-3.3-10.5-4.5s-7.2-2.6-10-4
				c-1.8,1-3.5,1.2-5,0.7c-1.5-0.5-3.5-1-6-1.5c-5.5-0.3-10.9-0.9-16-1.7c-5.1-0.8-10.1-2.3-14.8-4.4c-0.3-0.8-0.7-1.5-1.2-2.2
				c-0.5-0.6-1.4-0.8-2.7-0.5c-1-1.3-2-2.6-2.9-3.8s-1.9-2.6-2.7-4c0.3-2,0.6-3.6,0.7-5c0.2-1.4-0.3-2.7-1.5-4
				c0.6-2.1,1.1-3.8,1.5-5.1C130.9,138.6,130.9,136.9,130.6,134.8z"/>
		</g>
		<g class="st0">
			<path class="st2" d="M81.4,174.6c-0.2,2.3-0.7,4.4-1.6,6.5c-0.9,2-2,4-3.3,5.9c-1.3,1.9-2.7,3.7-4.3,5.4
				c-1.5,1.7-3.1,3.2-4.5,4.5c0.5,2.1,0.5,3.7,0.1,4.8c-0.4,1.1-0.5,2.6-0.4,4.8c-2.4,6.5-6.1,10.9-11.1,13.1c-5,2.2-9.6,1.7-14-1.3
				c-1.8-1.3-3.3-3-4.5-5c-1.2-2-2.9-3.3-5-3.8c0.5-2.8,0.2-5.5-0.7-8.3c-1-2.8-2-4.2-3.2-4.4c-0.5-3.4-1.2-7.1-2.2-11
				s-1.9-7.9-2.7-11.8c-0.8-4-1.5-7.9-2.1-11.7c-0.6-3.8-0.8-7.4-0.6-10.6c0.2-1.6-0.1-3.1-0.9-4.4c-0.7-1.3-1.3-2.8-1.6-4.6
				c-0.7-3.7-0.9-7.7-0.6-11.8s0.4-8.1,0.4-11.8c0-3.6-0.2-7.4-0.6-11.6c-0.4-4.2-0.8-8.1-1.1-12c-0.3-3.8-0.5-7.3-0.5-10.5
				s0.4-5.7,1.2-7.4c1-2,2.3-3.5,4-4.8s3.3-2.6,4.8-4c3.6,0.3,6.4,1.8,8.5,4.4c2.1,2.6,2.9,5,2.4,7.3c3.4,2.1,6.1,4.8,8.2,8.2
				c2,3.3,3.7,7.1,4.9,11.2s2.1,8.5,2.6,13.2s0.9,9.2,1.2,13.7c0.3,4.5,0.6,8.8,1,12.8c0.3,4.1,1,7.6,2,10.5
				c6-8.6,11.1-16.3,15.1-23.1c4.1-6.8,8.2-13.2,12.5-19.4c4.2-6.2,8.9-12.5,14.2-18.8c5.2-6.3,12-13.5,20.3-21.5c1.6,0.2,3,0.5,4,1
				c1.1,0.5,2,0.9,2.8,1.2c0.8,0.3,1.8,0.6,2.9,0.9c1.1,0.2,2.7,0.2,4.6-0.1c0.6,1.6,1.1,2.8,1.5,3.5c0.3,0.7,0.6,1.5,0.9,2.2
				c0.2,0.7,0.6,1.7,1,2.8c0.4,1.1,1.1,2.8,2.1,4.9c0.5,0.5,0.6,1.1,0.5,2c-0.2,0.8-0.3,1.6-0.4,2.3c-0.1,0.7-0.1,1.3-0.1,1.6
				c0,0.3,0.4,0.3,1.2,0c-0.5,2.3-1.3,4.4-2.6,6.2c-1.2,1.9-1.8,4.1-1.6,6.7c-3.7,4.9-7.9,9.9-12.3,15.1c-4.5,5.2-9,10.6-13.4,16.1
				c-4.5,5.5-8.8,11.4-12.8,17.5c-4.1,6.1-7.6,12.5-10.5,19.2c-0.8,0-1.4,0.2-1.8,0.7c-0.4,0.5-0.8,1-1.1,1.6
				c-0.3,0.6-0.7,1.1-1.1,1.6C82.6,174.3,82.1,174.6,81.4,174.6z"/>
			<path class="st2" d="M125.4,107.7c1.1-3.4,3-6.3,5.5-8.8c2.5-2.4,5.3-4.5,8.3-6.2c3-1.7,6.1-3.1,9.4-4.3c3.3-1.1,6.3-2.1,9.3-2.9
				c6.5-2.8,13.5-5.4,20.9-7.9c7.4-2.5,15-4.8,22.7-6.7c7.7-2,15.7-3.2,23.8-3.8c8.1-0.6,16.7,0.5,25.6,3.1c0.5,1.6,1.2,3.2,2.2,4.6
				s2,2.9,3.1,4.4c1.1,1.5,2,2.9,2.8,4.3c0.8,1.4,1.3,2.8,1.5,4.3c1.6,1.5,2.9,3.1,3.9,4.8s1.1,3.9,0.5,6.7
				c-1.6,1.3-3.2,2.5-4.8,3.5c-1.5,1.1-3.2,2-5,2.8c-6-1.5-12.1-2-18.3-1.5c-6.2,0.5-11.7,0.9-16.6,1.2c-1.5-1.5-3.2-2.2-5.2-2.2
				c-2,0-4.2,0.3-6.3,1c-2.2,0.7-4.4,1.3-6.6,2c-2.2,0.7-4.3,0.8-6.2,0.5c-1.6,1.3-3.6,2.2-6,2.6c-2.4,0.4-4.9,0.8-7.7,1.1
				c-0.2,0.8,0,1.3,0.5,1.6s0.6,0.8,0.2,1.6c1,1.1,2.2,2,3.8,2.4c1.5,0.5,3.2,1,4.9,1.5s3.2,1.1,4.5,1.8c1.3,0.7,2.2,1.9,2.7,3.5
				c2.4,0,4.6,0.6,6.3,1.7c1.8,1.1,3.3,2.5,4.4,4.2c1.1,1.6,2,3.4,2.6,5.2c0.6,1.9,0.9,3.5,0.9,5c0.5,1.3,1.1,1.9,1.7,1.7
				c0.6-0.2,1.4,0.2,2.2,1c0.5,2.1,1.7,4.3,3.7,6.5s3.5,4.6,4.6,7.2c0.3,4.1,0.6,7.7,0.7,10.9c0.2,3.2-0.4,6.4-1.7,9.6
				c-2.4,6-5.8,11.4-10.1,16.1c-4.3,4.7-9.2,8.9-14.6,12.6c-5.5,3.7-11.3,6.8-17.5,9.4c-6.2,2.6-12.2,4.8-18.1,6.6
				c-0.7-0.2-1.3-0.2-2,0c-0.7,0.2-0.8-0.2-0.5-1.2c-1.3,1.1-2.7,1.9-4.3,2.2c-1.5,0.3-3.2,0.4-5,0.4c-1.8-0.1-3.6-0.2-5.5-0.4
				c-1.9-0.2-3.6-0.1-5.2,0.2c-1.1-1.1-2.2-2.2-3.1-3.3c-0.9-1.1-1.6-2.4-2.1-4c-0.8,0-1.2-0.4-1.1-1.2c0.1-0.8-0.2-1.2-0.9-1.2
				c1-1.6,1.4-2.6,1.3-2.8c-0.1-0.2-0.3-0.4-0.7-0.6c-0.4-0.2-0.8-0.4-1.1-0.6c-0.3-0.2-0.4-0.6-0.2-1.1c0.6-1.3,0.9-2.8,0.7-4.5
				c-0.2-1.7-0.3-3.5-0.5-5.2c-0.2-1.8,0-3.5,0.4-5.1c0.4-1.6,1.6-2.9,3.5-3.9c5.5,0.7,10.8,0.5,15.7-0.6c5-1.1,9.6-2.6,14-4.5
				s8.6-4.1,12.6-6.3c4-2.3,7.9-4.3,11.8-6.1c0.5-1.5,1.2-2.7,2.1-3.7c0.9-1,1.8-1.9,2.8-2.7c1-0.8,1.9-1.7,2.7-2.7
				c0.8-1,1.4-2.2,1.7-3.7c0.2-1.1-0.1-1.8-0.9-2.1s-1.1-0.9-1.1-1.8l-2.7-0.7c-3.1-1.8-6.6-3.3-10.5-4.5s-7.2-2.6-10-4
				c-1.8,1-3.5,1.2-5,0.7c-1.5-0.5-3.5-1-6-1.5c-5.5-0.3-10.9-0.9-16-1.7c-5.1-0.8-10.1-2.3-14.8-4.4c-0.3-0.8-0.7-1.5-1.2-2.2
				c-0.5-0.6-1.4-0.8-2.7-0.5c-1-1.3-2-2.6-2.9-3.8s-1.9-2.6-2.7-4c0.3-2,0.6-3.6,0.7-5c0.2-1.4-0.3-2.7-1.5-4
				c0.6-2.1,1.1-3.8,1.5-5.1C125.7,111.5,125.7,109.8,125.4,107.7z"/>
		</g>
	</g>
</g>
</svg>
