<?xml version="1.0" encoding="utf-8"?>
<!-- Generator: Adobe Illustrator 27.3.1, SVG Export Plug-In . SVG Version: 6.00 Build 0)  -->
<svg version="1.1" id="Layer_2_00000122710275465570484240000000059841387529634700_"
	 xmlns="http://www.w3.org/2000/svg" xmlns:xlink="http://www.w3.org/1999/xlink" x="0px" y="0px" viewBox="0 0 270.4 324"
	 style="enable-background:new 0 0 270.4 324;" xml:space="preserve">
<style type="text/css">
	.st0{enable-background:new    ;}
	.st1{fill:#FFFFFF;}
</style>
<g id="LEFT_SIDE">
	<g>
		<g class="st0">
			<path class="st1" d="M28.7,92.6h28.6l4.8,95.5h3.8l65.6-95.5h31.8L76.9,215.8H36.6L28.7,92.6z"/>
			<path class="st1" d="M135.7,178.1h24.9c-2.6,13.2,8.5,18.8,27,18.8c18.2,0,34.8-5.6,34.8-18.6c0-7.8-6.2-11-19.4-13.8l-9.8-2.2
				c-14.5-3.2-39-8.5-39-31.1c0-27.3,26.5-42.7,61.7-42.7c34,0,55.3,15.1,45,41.4h-24.2c1.9-11.3-6.3-18.5-24.9-18.5
				c-17.9,0-29.9,6.9-29.9,17.7c0,7.3,5.6,10.6,16.6,13.2l8.2,1.9c17.6,4.3,44.3,7.6,44.3,31.7c0,31.7-31.8,44-67.6,44
				S125.9,207.9,135.7,178.1z"/>
		</g>
	</g>
</g>
</svg>
