<?xml version="1.0" encoding="UTF-8"?>
<svg id="Layer_2" data-name="Layer 2" xmlns="http://www.w3.org/2000/svg" viewBox="0 0 174.29 122">
  <defs>
    <style>
      .cls-1 {
        fill: #fff;
      }
    </style>
  </defs>
  <g id="Layer_1-2" data-name="Layer 1">
    <path id="YOUTUBE" class="cls-1" d="m170.64,19.05c-2-7.5-7.91-13.4-15.41-15.41C141.64,0,87.14,0,87.14,0c0,0-54.5,0-68.09,3.64-7.5,2-13.4,7.91-15.41,15.41C0,32.64,0,61,0,61c0,0,0,28.36,3.64,41.95,2,7.5,7.91,13.4,15.41,15.41,13.59,3.64,68.09,3.64,68.09,3.64,0,0,54.5,0,68.09-3.64,7.5-2,13.4-7.91,15.41-15.41,3.64-13.59,3.64-41.95,3.64-41.95,0,0,0-28.36-3.64-41.95Zm-100.93,68.09v-52.29l45.28,26.14-45.28,26.14Z"/>
  </g>
</svg>